<?xml version="1.0" encoding="utf-8"?>
<!-- Generator: Adobe Illustrator 26.2.1, SVG Export Plug-In . SVG Version: 6.00 Build 0)  -->
<svg version="1.1" id="Layer_1" xmlns="http://www.w3.org/2000/svg" xmlns:xlink="http://www.w3.org/1999/xlink" x="0px" y="0px"
	 viewBox="0 0 72 72" style="enable-background:new 0 0 72 72;" xml:space="preserve">
<style type="text/css">
	.st0{clip-path:url(#SVGID_00000083061581846998646440000003737920228462350753_);}
	.st1{fill:#FFFFFF;}
</style>
<g>
	<g>
		<defs>
			<rect id="SVGID_1_" x="1.3" y="1.5" width="70" height="69.9"/>
		</defs>
		<clipPath id="SVGID_00000038375439195917966060000013785854251738162340_">
			<use xlink:href="#SVGID_1_"  style="overflow:visible;"/>
		</clipPath>
		<path style="clip-path:url(#SVGID_00000038375439195917966060000013785854251738162340_);" d="M36.3,71.4c19.3,0,35-15.7,35-35
			c0-19.3-15.6-35-35-35s-35,15.7-35,35C1.3,55.8,17,71.4,36.3,71.4"/>
	</g>
</g>
<g>
	<path class="st1" d="M34.1,16.9c-0.8,0.2-1.2,0.7-1.5,1.1L27,31.1c-0.5,1.1-0.9,2.8,0.1,3.6l7.6,5.8v11.7c0,2.8,4.3,2.8,4.3,0V39.5
		c0-0.7-0.4-1.3-0.9-1.7l-4.7-5.1l4.1-9.1l3.5,4.1c0.4,0.5,0.9,1,1.5,1.4l6.2,3.8c1.3,0.4,2.3-2,1.4-2.7l-5.7-4l-5.9-7.6l-1.2-0.9
		c-0.8-0.4-1.8-0.6-2.4-0.8H34.1z"/>
	<path class="st1" d="M19.7,36.4c-6.1,0-11.1,5-11.1,11.1s5,11.1,11.1,11.1s11.1-5,11.1-11.1S25.8,36.4,19.7,36.4z M53.1,36.4
		c-6.1,0-11.1,5-11.1,11.1s5,11.1,11.1,11.1s11.1-5,11.1-11.1S59.2,36.4,53.1,36.4z M19.7,40c4.1,0,7.4,3.3,7.4,7.4
		s-3.3,7.4-7.4,7.4s-7.4-3.3-7.4-7.4S15.6,40,19.7,40z M53.1,40c4.1,0,7.4,3.3,7.4,7.4s-3.3,7.4-7.4,7.4s-7.4-3.3-7.4-7.4
		S49,40,53.1,40z"/>
	<circle class="st1" cx="41" cy="11.5" r="4.4"/>
</g>
</svg>
