<?xml version="1.0" encoding="utf-8"?>
<!-- Generator: Adobe Illustrator 26.2.1, SVG Export Plug-In . SVG Version: 6.00 Build 0)  -->
<svg version="1.1" id="Layer_1" xmlns="http://www.w3.org/2000/svg" xmlns:xlink="http://www.w3.org/1999/xlink" x="0px" y="0px"
	 viewBox="0 0 72 72" style="enable-background:new 0 0 72 72;" xml:space="preserve">
<style type="text/css">
	.st0{clip-path:url(#SVGID_00000069383917860532019860000001714566934372730025_);}
	.st1{fill:#FFFFFF;}
</style>
<g>
	<g>
		<defs>
			<rect id="SVGID_1_" x="1" y="1.2" width="70" height="69.9"/>
		</defs>
		<clipPath id="SVGID_00000155112725183344213310000010893874423353041826_">
			<use xlink:href="#SVGID_1_"  style="overflow:visible;"/>
		</clipPath>
		<path style="clip-path:url(#SVGID_00000155112725183344213310000010893874423353041826_);" d="M36,71.1c19.3,0,35-15.7,35-35
			c0-19.3-15.6-35-35-35S1,16.8,1,36.2C1,55.5,16.7,71.1,36,71.1"/>
	</g>
</g>
<g>
	<path class="st1" d="M48.1,34.8c-1.8,5.4-3.3,11.1-4.2,14.9c0.9,0.3,1.7,0.7,2.7,0.7c2,0,3.3-1.3,5.3-1.3c0.1,0,0.2,0,0.3,0
		c2-5.9,4-14,7.4-14c0.2,0,0.3-0.1,0.3-0.3s-0.1-0.3-0.3-0.3c-4.1,0-8.5,5.2-12.2,11.1c0.9-3.3,1.9-6.8,3-10.1
		c1.1-0.2,2.1-1,2.5-2.1c0.5-1.6,1.6-4.4,2.6-5.4c1.1-1.1,1.2-2.9,0.2-4c0.4-0.5,0.7-0.9,1.1-1.1c0.5-0.4,0.6-1.1,0.2-1.6
		c-0.4-0.5-1.1-0.6-1.6-0.2c-0.6,0.5-1.2,1.1-1.8,1.9c-0.8-0.1-1.7,0.2-2.3,0.9c-2.4,2.4-3.8,7-4.1,7.9C46.7,32.8,47.2,34,48.1,34.8
		L48.1,34.8z"/>
	<path class="st1" d="M52,53c-2,0-3.3,1.3-5.3,1.3S43.4,53,41.4,53s-3.3,1.3-5.3,1.3S32.8,53,30.8,53s-3.3,1.3-5.3,1.3S22,53,20,53
		s-3.3,1.3-5.3,1.3c-1,0-1.8-0.3-2.7-0.7v4c0.8,0.3,1.7,0.7,2.7,0.7c2,0,3.3-1.3,5.3-1.3s3.3,1.3,5.3,1.3s3.3-1.3,5.3-1.3
		s3.3,1.3,5.3,1.3s3.3-1.3,5.3-1.3s3.3,1.3,5.3,1.3s3.3-1.3,5.3-1.3s3.3,1.3,5.3,1.3c1,0,1.8-0.3,2.7-0.7v-4
		c-0.8,0.3-1.7,0.7-2.7,0.7C55.3,54.4,54,53,52,53L52,53z"/>
	<path class="st1" d="M12.4,40.4c2.4,0.4,4.5,4.8,6.5,8.8c0.4-0.1,0.7-0.1,1.1-0.1c2,0,3.3,1.3,5.3,1.3c1.1,0,2-0.4,2.9-0.8
		c-0.8-3.5-2-8.4-3.6-13c0.8-0.8,1.1-1.9,0.8-3c-0.4-1.2-1.7-5.2-3.5-7c-0.7-0.7-1.8-1-2.7-0.8c-0.8-1-1.7-1.8-2.6-2.3
		C16,23.2,15.3,23.4,15,24s-0.1,1.3,0.5,1.6c0.6,0.3,1.2,0.9,1.8,1.6c-0.7,1.2-0.6,2.7,0.4,3.7c0.5,0.5,1.4,2.7,2,4.5
		c0.4,1.2,1.5,2,2.7,2.1c1.3,3.6,2.3,7.6,3.1,10.9c-4.2-4.9-9.4-8.6-13.2-8.6c-0.2,0-0.3,0.1-0.3,0.3C12.1,40.3,12.2,40.4,12.4,40.4
		L12.4,40.4z"/>
	<path class="st1" d="M28.4,23.1c4.8,1.1,0.4,16.2,1.9,26c0.1,0,0.3,0,0.4,0c2,0,3.3,1.3,5.3,1.3c1.2,0,2.1-0.4,3-0.8
		c0.1-8,1.4-15.6,2.9-21.8c1.1-0.2,2.1-1,2.4-2.2c0,0,1.1-4.2,2.4-7.7c0.4-1.2,0.1-2.4-0.7-3.2c0.6-1.4,0.9-2.3,0.9-2.3
		c0.3-0.6,0-1.3-0.6-1.5c-0.6-0.3-1.3,0-1.5,0.6c0,0-0.4,0.9-1,2.4c-1.2,0-2.2,0.8-2.7,1.9c-1.4,3.8-2.6,8.1-2.6,8.3
		c-0.3,1.2,0.2,2.4,1.1,3.1c-1.3,5.4-2.5,11.8-2.9,18.6c-2.1-11.7-1.7-23.9-8.5-23.4c-0.2,0-0.3,0.1-0.3,0.3
		C28,23,28.2,23.1,28.4,23.1L28.4,23.1z"/>
</g>
</svg>
