<?xml version="1.0" encoding="utf-8"?>
<!-- Generator: Adobe Illustrator 26.2.1, SVG Export Plug-In . SVG Version: 6.00 Build 0)  -->
<svg version="1.1" id="Layer_1" xmlns="http://www.w3.org/2000/svg" xmlns:xlink="http://www.w3.org/1999/xlink" x="0px" y="0px"
	 viewBox="0 0 72 72" style="enable-background:new 0 0 72 72;" xml:space="preserve">
<style type="text/css">
	.st0{clip-path:url(#SVGID_00000175319868547366540000000011544209995596687515_);}
	.st1{fill:#FFFFFF;}
</style>
<g>
	<g>
		<defs>
			<rect id="SVGID_1_" x="1.3" y="1.2" width="70" height="69.9"/>
		</defs>
		<clipPath id="SVGID_00000000909344123332088730000012938487054648159110_">
			<use xlink:href="#SVGID_1_"  style="overflow:visible;"/>
		</clipPath>
		<path style="clip-path:url(#SVGID_00000000909344123332088730000012938487054648159110_);" d="M36.3,71.1c19.3,0,35-15.7,35-35
			c0-19.3-15.6-35-35-35s-35,15.7-35,35C1.3,55.5,17,71.1,36.3,71.1"/>
	</g>
</g>
<path class="st1" d="M34.4,20.7c0,0-2.1,1.8-3.2,2.8c-1.5,1.5-3.6,4.7-3.6,4.7s-3.3,0.4-5,1c-4.1,1.7-7,3.4-8.5,4.1
	c-1.2,0.6-6.5,2.8-7.5,3.6c-0.9,0.6-2.4,1.7-2.4,2.6c-0.1,0.9,0.7,1.5,2,2.2c1.2,0.8,1,0.4,3.8,1.5c1.4,0.6,2.6,0.7,5.9,1.5
	c2.1,0.6,4.1,0.1,4.1,0.1s2.4,2.4,4.4,3.4c2,0.9,2.7,0.7,4,0.4C27,46.7,26,44.7,26,44.7s5.2,0.5,8.1,0.4c3.2-0.1,5.6-0.6,6.3-0.8
	c1.6-0.5,3.3-1,3.3-1s1,1.7,1.8,2.4c1.2,1,3.1,0.8,3.3,0.5c0.4-0.5-0.1-0.9,0.6-2.4c0.7-1.4,1.4-1.7,1.7-2.2
	c0.4-0.6,0.8-1.1,1.1-2.1c1.8-0.6,5.9,0.1,6.9,0.4c0.6,0.1,1.7,1.6,2.6,2.4c1.2,1.1,2.2,1.8,3.4,2.4c0.9,0.5,2.4,0.8,2.8,0.5
	c-0.4-1.2-1.6-3-2.1-5.4c-0.5-2.4-0.8-4.3,0-7.4c0.6-2.2,1.7-4.7,1.6-5.3c-0.8,0-3.6,1.5-5.1,3.1c-2,2.1-3.4,2.8-3.4,2.8
	s-3.2,0.5-5.4-0.4c0.5-0.5,1.1-1.6,1.4-2.1c0.1-0.6-2.1-0.8-2.8-1.4c-1.8-1.1-2.4-1.2-3-1.7c-0.6-0.5-1.7-1.6-2.1-2.4
	c-0.2-0.7-1.1-0.7-2,0c-1,0.8-2.8,2.8-3.6,3.4c-0.4,0.2-1.8,0.1-1.7,0c0.5-2,0.9-3.4-0.2-3.8c-2-0.8-4-3.6-4-3.6L34.4,20.7z"/>
</svg>
