<?xml version="1.0" encoding="utf-8"?>
<!-- Generator: Adobe Illustrator 27.5.0, SVG Export Plug-In . SVG Version: 6.00 Build 0)  -->
<svg version="1.1" id="Layer_1" xmlns="http://www.w3.org/2000/svg" xmlns:xlink="http://www.w3.org/1999/xlink" x="0px" y="0px"
	 viewBox="0 0 72 72" style="enable-background:new 0 0 72 72;" xml:space="preserve">
<style type="text/css">
	.st0{fill:none;}
	.st1{fill:#FFFFFF;}
</style>
<g>
	<g>
		<g>
			<g>
				<polygon class="st0" points="0.6,0.5 71.3,0.7 72,71.2 0.6,71.1 				"/>
				<path d="M36.3,71.1c19.3,0,35-15.7,35-35s-15.6-35-35-35s-35,15.7-35,35C1.3,55.5,17,71.1,36.3,71.1"/>
			</g>
		</g>
	</g>
	<path class="st1" d="M34.5,21.4c0,0-2,1.7-3,2.7C30,25.5,28,28.5,28,28.5s-3.1,0.4-4.7,0.9c-3.9,1.6-6.6,3.2-8.1,3.9
		C14.1,33.9,9,36,8.1,36.7c-0.9,0.6-2.3,1.6-2.3,2.5c-0.1,0.9,0.7,1.4,1.9,2.1c1.1,0.8,0.9,0.4,3.6,1.4c1.3,0.6,2.5,0.7,5.6,1.4
		c2,0.6,3.9,0.1,3.9,0.1s2.3,2.3,4.2,3.2s2.6,0.7,3.8,0.4c-1.3-1.8-2.3-3.7-2.3-3.7s4.9,0.5,7.7,0.4c3-0.1,5.3-0.6,6-0.8
		c1.5-0.5,3.1-0.9,3.1-0.9s0.9,1.6,1.7,2.3c1.1,0.9,2.9,0.8,3.1,0.5c0.4-0.5-0.1-0.9,0.6-2.3c0.7-1.3,1.3-1.6,1.6-2.1
		c0.4-0.6,0.8-1,1-2c1.7-0.6,5.6,0.1,6.5,0.4c0.6,0.1,1.6,1.5,2.5,2.3c1.1,1,2.1,1.7,3.2,2.3c0.9,0.5,2.3,0.8,2.7,0.5
		c-0.4-1.1-1.5-2.8-2-5.1s-0.8-4.1,0-7c0.6-2.1,1.6-4.5,1.5-5c-0.8,0-3.4,1.4-4.8,2.9c-1.9,2-3.2,2.7-3.2,2.7s-3,0.5-5.1-0.4
		c0.5-0.5,1-1.5,1.3-2c0.1-0.6-2-0.8-2.7-1.3c-1.7-1-2.3-1.1-2.8-1.6c-0.6-0.5-1.6-1.5-2-2.3c-0.2-0.7-1-0.7-1.9,0
		c-0.9,0.8-2.7,2.7-3.4,3.2c-0.4,0.2-1.7,0.1-1.6,0c0.5-1.9,0.9-3.2-0.2-3.6c-1.9-0.8-3.8-3.4-3.8-3.4L34.5,21.4z"/>
</g>
</svg>
