<?xml version="1.0" encoding="utf-8"?>
<!-- Generator: Adobe Illustrator 27.5.0, SVG Export Plug-In . SVG Version: 6.00 Build 0)  -->
<svg version="1.1" id="Layer_1" xmlns="http://www.w3.org/2000/svg" xmlns:xlink="http://www.w3.org/1999/xlink" x="0px" y="0px"
	 viewBox="0 0 72 72" style="enable-background:new 0 0 72 72;" xml:space="preserve">
<style type="text/css">
	.st0{fill:none;}
	.st1{fill:#F77B00;}
	.st2{fill:#FFFFFF;}
</style>
<g>
	<g>
		<rect x="0.5" y="1.1" class="st0" width="70" height="69.9"/>
		<path class="st1" d="M35.5,71.1c19.3,0,35-15.7,35-35s-15.6-35-35-35s-35,15.7-35,35S16.2,71.1,35.5,71.1"/>
	</g>
</g>
<g>
	<path class="st2" d="M31.1,33.8v-2.9c0-2.1,1.7-3.7,3.7-3.7H36c0.5,0,1,0.1,1.6,0.3l6.2-6.3c-2-5.9-4.8-10.6-6.6-13.3
		c-0.9-1.1-2.7-1.1-3.6,0.1c-3.1,4.7-9.2,15.5-9.2,28.1c0,1.5,0.1,2.8,0.3,4.3L31.1,33.8z"/>
	<path class="st2" d="M39.8,41c0,2.1-1.7,3.7-3.7,3.7h-1.2c-1.6,0-2.8-1-3.5-2.3l8.4-8.3C39.8,34.2,39.8,41,39.8,41z M60.2,15
		l-3.8-3.8c-0.6-0.6-1.6-0.6-2.3,0l-4.5,4.5c-0.4,0.4-0.5,0.8-0.5,1.4l0.3,2.5L18.7,50.1l-2.5-0.3c-0.5-0.1-1,0.1-1.4,0.5l-4.5,4.5
		c-0.6,0.6-0.6,1.6,0,2.3l3.8,3.8c0.3,0.3,0.7,0.5,1.2,0.5s0.8-0.2,1.1-0.5l4.5-4.5c0.4-0.4,0.5-0.8,0.5-1.4l-0.3-2.5l4.8-4.8
		c2,7.3,5.4,13.2,7.5,16.4c0.8,1.2,2.7,1.2,3.5,0c3.1-4.7,9.2-15.5,9.2-28.1c0-2.7-0.3-5.2-0.7-7.7l6.4-6.4l2.5,0.3h0.2
		c0.5,0,0.8-0.2,1.1-0.5l4.5-4.5C60.8,16.6,60.8,15.6,60.2,15"/>
</g>
</svg>
