<?xml version="1.0" encoding="utf-8"?>
<!-- Generator: Adobe Illustrator 26.2.1, SVG Export Plug-In . SVG Version: 6.00 Build 0)  -->
<svg version="1.1" id="Layer_1" xmlns="http://www.w3.org/2000/svg" xmlns:xlink="http://www.w3.org/1999/xlink" x="0px" y="0px"
	 viewBox="0 0 72 72" style="enable-background:new 0 0 72 72;" xml:space="preserve">
<style type="text/css">
	.st0{fill:#010101;}
</style>
<g>
	<path class="st0" d="M33.4,18.1c-0.9,0.2-1.3,0.8-1.7,1.2l-6.3,14.8c-0.6,1.2-1,3.2,0.1,4.1l8.6,6.5v13.2c0,3.2,4.8,3.2,4.8,0V43.5
		c0-0.8-0.4-1.5-1-1.9l-5.3-5.7l4.6-10.3l3.9,4.6c0.5,0.6,1,1.1,1.7,1.6l7,4.3c1.5,0.5,2.6-2.3,1.6-3l-6.4-4.5L38.4,20L37,19
		c-0.9-0.4-2-0.7-2.7-0.9H33.4z"/>
	<path class="st0" d="M17.2,40c-6.9,0-12.5,5.6-12.5,12.5S10.3,65,17.2,65s12.5-5.6,12.5-12.5S24.1,40,17.2,40z M54.8,40
		c-6.9,0-12.5,5.6-12.5,12.5S47.9,65,54.8,65s12.5-5.6,12.5-12.5S61.7,40,54.8,40z M17.2,44.1c4.6,0,8.3,3.7,8.3,8.3
		s-3.7,8.3-8.3,8.3s-8.3-3.7-8.3-8.3S12.6,44.1,17.2,44.1z M54.8,44.1c4.6,0,8.3,3.7,8.3,8.3s-3.7,8.3-8.3,8.3s-8.3-3.7-8.3-8.3
		S50.2,44.1,54.8,44.1z"/>
	<circle class="st0" cx="41.2" cy="12" r="5"/>
</g>
</svg>
