<?xml version="1.0" encoding="utf-8"?>
<!-- Generator: Adobe Illustrator 26.2.1, SVG Export Plug-In . SVG Version: 6.00 Build 0)  -->
<svg version="1.1" id="Layer_1" xmlns="http://www.w3.org/2000/svg" xmlns:xlink="http://www.w3.org/1999/xlink" x="0px" y="0px"
	 viewBox="0 0 72 72" style="enable-background:new 0 0 72 72;" xml:space="preserve">
<style type="text/css">
	.st0{fill:#010101;}
</style>
<path class="st0" d="M34.2,21c0,0-2.3,1.9-3.4,3c-1.6,1.6-3.9,5-3.9,5s-3.5,0.4-5.3,1.1c-4.4,1.8-7.5,3.6-9.1,4.4
	c-1.3,0.6-7,3-8,3.8c-1,0.6-2.6,1.8-2.6,2.8c-0.1,1,0.7,1.6,2.1,2.4c1.3,0.9,1.1,0.4,4.1,1.6c1.5,0.6,2.8,0.7,6.3,1.6
	c2.2,0.6,4.4,0.1,4.4,0.1s2.6,2.6,4.7,3.6c2.1,1,2.9,0.7,4.3,0.4c-1.5-1.9-2.6-4.1-2.6-4.1s5.6,0.5,8.7,0.4c3.4-0.1,6-0.6,6.7-0.9
	c1.7-0.5,3.5-1.1,3.5-1.1s1.1,1.8,1.9,2.6c1.3,1.1,3.3,0.9,3.5,0.5c0.4-0.5-0.1-1,0.6-2.6c0.7-1.5,1.5-1.8,1.8-2.4
	c0.4-0.6,0.9-1.2,1.2-2.3c1.9-0.6,6.3,0.1,7.4,0.4c0.6,0.1,1.8,1.7,2.8,2.6c1.3,1.2,2.4,1.9,3.6,2.6c1,0.5,2.6,0.9,3,0.5
	c-0.4-1.3-1.7-3.2-2.2-5.8c-0.5-2.6-0.9-4.6,0-7.9c0.6-2.4,1.8-5,1.7-5.7c-0.9,0-3.8,1.6-5.5,3.3c-2.1,2.2-3.6,3-3.6,3
	s-3.4,0.5-5.8-0.4c0.5-0.5,1.2-1.7,1.5-2.3c0.1-0.6-2.2-0.9-3-1.5c-1.9-1.2-2.6-1.3-3.2-1.8c-0.6-0.5-1.8-1.7-2.2-2.6
	c-0.2-0.7-1.2-0.7-2.1,0c-1.1,0.9-3,3-3.8,3.6c-0.4,0.2-1.9,0.1-1.8,0c0.5-2.1,1-3.6-0.2-4.1c-2.1-0.9-4.3-3.8-4.3-3.8L34.2,21z"/>
</svg>
