<?xml version="1.0" encoding="utf-8"?>
<!-- Generator: Adobe Illustrator 26.2.1, SVG Export Plug-In . SVG Version: 6.00 Build 0)  -->
<svg version="1.1" id="Layer_1" xmlns="http://www.w3.org/2000/svg" xmlns:xlink="http://www.w3.org/1999/xlink" x="0px" y="0px"
	 viewBox="0 0 72 72" style="enable-background:new 0 0 72 72;" xml:space="preserve">
<style type="text/css">
	.st0{fill:#010101;stroke:#FFFFFF;stroke-width:8.870014e-02;stroke-miterlimit:10;}
	.st1{fill:#010101;stroke:#FFFFFF;stroke-width:5.255999e-02;stroke-miterlimit:10;}
	.st2{stroke:#010101;stroke-width:8.387680e-02;stroke-miterlimit:10;}
	.st3{fill:#010101;}
</style>
<g>
	<path class="st0" d="M25,38.4l-3.2-0.5c-1.3-0.2-2.1-1.4-1.9-2.7l2.2-13.5c0.2-1.3,1.4-2.1,2.7-1.9l3.2,0.5
		c1.3,0.2,2.1,1.4,1.9,2.7l-2.2,13.5C27.4,37.8,26.3,38.6,25,38.4z"/>
	<path d="M52,30l-8-0.5c-0.3-0.5-3.6-6.4-4.3-7.3c-0.6-0.9-1.2-1.9-3.4-2.4c-2.5-0.5-4.5,1.3-4.9,3.4L29,37.7c0,0.2-0.1,1,0,1.7
		c0.2,0.9,0.6,1.7,1,2.1l8.8,7.1l1.4,11.7c0.1,1.6,1,3.1,2.6,2.8c1.6-0.2,2.4-1.6,2.3-3.1l-0.7-12.9c0-0.2,0-0.3-0.1-0.5
		c-0.1-0.6-0.4-1.2-0.9-1.7c0,0-3.3-3-5.2-4.8c-0.6-0.5-1.2-0.8-1-2c0.3-1.5,1.3-9,1.3-9l2.6,3.8c0.2,0.3,0.8,0.8,1.6,0.9l9.1,0.6
		c1.3,0.1,2.5-0.9,2.5-2.2v0C54.4,30.8,53.4,30,52,30z"/>
	<circle class="st1" cx="38.2" cy="13.7" r="5"/>
	<path d="M50.5,61.9"/>
	<path d="M53.3,21.5"/>
	<g>
		<path class="st2" d="M29.3,43.4c-0.1,0.2-0.2,0.4-0.3,0.6l-4.7,15.3c-0.5,1.6,0.4,3.3,1.9,3.8h0c1.5,0.5,3.1-0.7,3.5-2.3l4.4-13.5
			L29.3,43.4z"/>
	</g>
	<g>
		<path class="st3" d="M53.7,29.1l0.5-7.5c0-0.7-0.5-1.3-1.2-1.4c-0.7,0-1.3,0.5-1.4,1.2l-0.5,7.4L53.7,29.1z"/>
		<path class="st3" d="M50.6,35.4l-1.8,26.4c0,0.7,0.5,1.3,1.2,1.4c0,0,0.1,0,0.1,0c0.7,0,1.2-0.5,1.3-1.2l1.8-26.4L50.6,35.4z"/>
	</g>
</g>
</svg>
