<?xml version="1.0" encoding="utf-8"?>
<!-- Generator: Adobe Illustrator 26.2.1, SVG Export Plug-In . SVG Version: 6.00 Build 0)  -->
<svg version="1.1" id="Layer_1" xmlns="http://www.w3.org/2000/svg" xmlns:xlink="http://www.w3.org/1999/xlink" x="0px" y="0px"
	 viewBox="0 0 72 72" style="enable-background:new 0 0 72 72;" xml:space="preserve">
<style type="text/css">
	.st0{fill:#010101;}
</style>
<g>
	<path class="st0" d="M31.3,33.7v-3.2c0-2.3,1.9-4.1,4.1-4.1h1.3c0.6,0,1.1,0.1,1.7,0.3l6.8-6.9c-2.2-6.5-5.3-11.6-7.2-14.6
		C37,4,35,4,34.1,5.3C30.7,10.4,24,22.3,24,36.1c0,1.6,0.1,3.1,0.3,4.7L31.3,33.7z"/>
	<path class="st0" d="M40.8,41.6c0,2.3-1.9,4.1-4.1,4.1h-1.3c-1.7,0-3.1-1.1-3.8-2.5l9.2-9.1V41.6z M63.2,13.1L59,8.9
		c-0.7-0.7-1.8-0.7-2.5,0l-4.9,4.9c-0.4,0.4-0.5,0.9-0.5,1.5l0.3,2.7L17.8,51.5l-2.7-0.3c-0.5-0.1-1.1,0.1-1.5,0.5l-4.9,4.9
		c-0.7,0.7-0.7,1.8,0,2.5l4.2,4.2c0.3,0.3,0.8,0.5,1.3,0.5c0.5,0,0.9-0.2,1.2-0.5l4.9-4.9c0.4-0.4,0.5-0.9,0.5-1.5l-0.3-2.7l5.3-5.3
		c2.2,8,5.9,14.4,8.2,17.9c0.9,1.3,2.9,1.3,3.8,0c3.4-5.1,10.1-17,10.1-30.8c0-2.9-0.3-5.7-0.8-8.4l7-7l2.7,0.3h0.2
		c0.5,0,0.9-0.2,1.2-0.5l4.9-4.9C63.8,14.9,63.8,13.8,63.2,13.1"/>
</g>
</svg>
