<?xml version="1.0" encoding="utf-8"?>
<!-- Generator: Adobe Illustrator 26.2.1, SVG Export Plug-In . SVG Version: 6.00 Build 0)  -->
<svg version="1.1" id="Layer_1" xmlns="http://www.w3.org/2000/svg" xmlns:xlink="http://www.w3.org/1999/xlink" x="0px" y="0px"
	 viewBox="0 0 72 72" style="enable-background:new 0 0 72 72;" xml:space="preserve">
<style type="text/css">
	.st0{fill-rule:evenodd;clip-rule:evenodd;fill:#010101;}
</style>
<path class="st0" d="M66.6,35.1c-4.2,6.7-12.5,16.3-25.2,16.3H7.3c-0.4,0-0.7-0.3-0.8-0.8l-2-8.9c-0.1-0.6,0.2-1.3,0.7-1.3
	L66.6,35.1L66.6,35.1z M9,32.4l-5.3,0.5c-0.4,0-0.8-0.4-0.9-1l0-0.6c0-0.6,0.3-1.1,0.8-1.1l16.9-1.4c0.4,0,0.8,0.4,0.9,1l0,0.6
	c0,0.6-0.3,1.1-0.8,1.1l-1.9,0.2c-0.4,0-0.8,0.5-0.8,1.1l0,0c0,0.6,0.4,1.1,0.9,1.1l3.4-0.3c0.4,0,0.7-0.4,0.7-0.9l0.6-7
	c0-0.3,0-0.5-0.2-0.8l-1.2-2c-0.4-0.7-0.1-1.6,0.6-1.7l23.9-2.3c0.3,0,0.5,0.1,0.7,0.4l7,10.8c0.2,0.3,0.4,0.4,0.7,0.4L68.4,29
	c0.7-0.1,1.1,0.9,0.7,1.6c-0.3,0.6-0.7,1.3-1.1,2.1c-0.1,0.3-0.4,0.4-0.6,0.4L4.5,38.6c-0.4,0-0.7-0.3-0.8-0.8l-0.3-1.3
	c-0.1-0.6,0.2-1.3,0.7-1.3l5-0.5c0.4,0,0.7-0.5,0.7-1.1v-0.1C9.9,32.8,9.5,32.3,9,32.4z M38.3,24.3l1.2,6.4c0.1,0.5,0.5,0.8,0.8,0.8
	l8-0.8c0.6-0.1,1-1,0.6-1.7l-3.4-6c-0.2-0.3-0.4-0.4-0.7-0.4L39,23C38.5,23,38.2,23.7,38.3,24.3z M27.7,32.8l8.2-0.8
	c0.5,0,0.8-0.6,0.7-1.3l-1-6.5c-0.1-0.5-0.4-0.9-0.8-0.9l-7,0.5c-0.4,0-0.8,0.5-0.8,1l-0.2,6.9C26.8,32.3,27.2,32.8,27.7,32.8z
	 M11.8,33.1L11.8,33.1c0,0.7,0.4,1.2,0.9,1.1l2.6-0.3c0.4,0,0.7-0.5,0.7-1.1v-0.1c0-0.6-0.4-1.1-0.9-1.1l-2.6,0.2
	C12.1,32.1,11.8,32.6,11.8,33.1z"/>
</svg>
