<?xml version="1.0" encoding="utf-8"?>
<!-- Generator: Adobe Illustrator 26.2.1, SVG Export Plug-In . SVG Version: 6.00 Build 0)  -->
<svg version="1.1" id="Layer_1" xmlns="http://www.w3.org/2000/svg" xmlns:xlink="http://www.w3.org/1999/xlink" x="0px" y="0px"
	 viewBox="0 0 72 72" style="enable-background:new 0 0 72 72;" xml:space="preserve">
<style type="text/css">
	.st0{fill:#010101;}
</style>
<g>
	<path class="st0" d="M67.4,56.6c-1.4,0-2.7-0.3-3.9-0.9c-1.2-0.6-2.6-0.9-4-0.9c-1.4,0-2.8,0.3-4,0.9c-1.2,0.5-2.5,0.9-3.9,0.9
		c-1.4,0-2.7-0.3-3.9-0.9c-1.2-0.6-2.6-0.9-4-0.9c-1.4,0-2.8,0.3-4,0.9c-1.2,0.5-2.5,0.9-3.9,0.9c-1.4,0-2.7-0.3-3.9-0.9
		c-1.2-0.6-2.6-0.9-4-0.9c-1.4,0-2.8,0.3-4,0.9c-1.2,0.5-2.5,0.9-3.9,0.9c-1.4,0-2.7-0.3-3.9-0.9c-1.2-0.6-2.6-0.9-4-0.9
		c-1.4,0-2.8,0.3-4,0.9c-1.2,0.5-2.5,0.9-3.9,0.9v-5.9c1.4,0,2.7-0.3,3.9-0.8c1.2-0.6,2.6-0.9,4-0.9c1.4,0,2.8,0.3,4,0.9
		c1.2,0.5,2.5,0.8,3.9,0.8c1.4,0,2.7-0.3,3.9-0.8c1.2-0.6,2.6-0.9,4-0.9c1.4,0,2.8,0.3,4,0.9c1.2,0.5,2.5,0.8,3.9,0.8
		c1.4,0,2.7-0.3,3.9-0.8c1.2-0.6,2.6-0.9,4-0.9c1.4,0,2.8,0.3,4,0.9c1.2,0.5,2.5,0.8,3.9,0.8c1.4,0,2.7-0.3,3.9-0.8
		c1.2-0.6,2.6-0.9,4-0.9c1.4,0,2.8,0.3,4,0.9c1.2,0.5,2.5,0.8,3.9,0.8L67.4,56.6z"/>
	<path class="st0" d="M58.3,40.1c4.1,0,7.5-3.4,7.5-7.6c0-4.2-3.3-7.6-7.5-7.6c-4.1,0-7.5,3.4-7.5,7.6
		C50.8,36.7,53.9,40.1,58.3,40.1z"/>
	<path class="st0" d="M14.8,44.3c0.6,0.1,1.1,0.3,1.6,0.6c1.2,0.5,2.5,0.9,3.9,0.9c1.4,0,2.7-0.3,3.9-0.9c1.2-0.6,2.6-0.9,4-0.9
		c1.4,0,2.8,0.3,4,0.9c1.2,0.5,2.5,0.9,3.9,0.9c1.4,0,2.7-0.3,3.9-0.9c1.2-0.6,2.6-0.9,4-0.9c1.4,0,2.8,0.3,4,0.9
		c1.2,0.5,2.5,0.9,3.9,0.9c1,0,2-0.2,2.9-0.5L42.1,22.6l14.5-2.7c2.1-0.4,3.7-2.1,3.7-4.3c0-2.4-1.9-4.3-4.3-4.3c-0.2,0-0.3,0-0.5,0
		l-22.4,4.1c-1.6,0.4-3.7,2.7-2.5,5.5c0.1,0.2,0.1,0.3,0.2,0.5l5.8,10.7L14.8,44.3z"/>
</g>
</svg>
