<?xml version="1.0" encoding="utf-8"?>
<!-- Generator: Adobe Illustrator 26.2.1, SVG Export Plug-In . SVG Version: 6.00 Build 0)  -->
<svg version="1.1" id="Layer_1" xmlns="http://www.w3.org/2000/svg" xmlns:xlink="http://www.w3.org/1999/xlink" x="0px" y="0px"
	 viewBox="0 0 72 72" style="enable-background:new 0 0 72 72;" xml:space="preserve">
<style type="text/css">
	.st0{clip-path:url(#SVGID_00000137094759898459380770000009994166122873565844_);}
	.st1{fill:#FFFFFF;}
</style>
<g>
	<g>
		<defs>
			<rect id="SVGID_1_" x="1.7" y="1.9" width="70" height="69.9"/>
		</defs>
		<clipPath id="SVGID_00000005970655975537580910000008071288740711626413_">
			<use xlink:href="#SVGID_1_"  style="overflow:visible;"/>
		</clipPath>
		<path style="clip-path:url(#SVGID_00000005970655975537580910000008071288740711626413_);" d="M36.6,71.8c19.3,0,35-15.7,35-35
			c0-19.3-15.6-35-35-35s-35,15.7-35,35C1.7,56.1,17.3,71.8,36.6,71.8"/>
	</g>
</g>
<g>
	<path class="st1" d="M40.3,45c2.7-0.6,4.7-3,4.7-5.9c0-3.3-2.7-6.1-6.1-6.1c-3.3,0-6.1,2.7-6.1,6.1c0,1.9,1,3.7,2.4,4.8L1.4,36.5
		V53L38,53.5c1.5,0,2.9-0.8,3.7-2c0.8,1.2,2.2,2,3.7,2s2.9-0.8,3.7-2c0.8,1.2,2.2,2,3.7,2s2.9-0.8,3.7-2c0.8,1.2,2.2,2,3.7,2
		c1.5,0,2.9-0.8,3.7-2c0.8,1.2,2.2,2,3.7,2c1.4,0,2.6-0.6,3.4-1.6L40.3,45z M35.8,39.1c0-1.7,1.4-3.2,3.2-3.2c1.7,0,3.2,1.4,3.2,3.2
		c0,1.7-1.4,3.2-3.2,3.2C37.2,42.4,35.8,41,35.8,39.1z"/>
	<path class="st1" d="M66,42.7l-20.4-4.4c0,0.2,0,0.4,0,0.8c0,0.6-0.1,1.2-0.2,1.7l20.1,4.4L66,42.7"/>
	<path class="st1" d="M7.1,29.9l-0.5,2.4l25.7,5.6c0.1-0.9,0.4-1.6,0.9-2.3L7.1,29.9"/>
	<path class="st1" d="M26.4,23.8l7-4l-0.8-1.3l-8.5,4.8l-14-3c0.1,8.7,9.7,11.2,9.7,11.2l14,3c1.2-1.4,3-2.3,5.1-2.3
		c3,0,5.5,1.9,6.5,4.6L63,40.6l4.4-8.1L26.4,23.8"/>
</g>
</svg>
