<?xml version="1.0" encoding="utf-8"?>
<!-- Generator: Adobe Illustrator 26.2.1, SVG Export Plug-In . SVG Version: 6.00 Build 0)  -->
<svg version="1.1" id="Layer_1" xmlns="http://www.w3.org/2000/svg" xmlns:xlink="http://www.w3.org/1999/xlink" x="0px" y="0px"
	 viewBox="0 0 72 72" style="enable-background:new 0 0 72 72;" xml:space="preserve">
<style type="text/css">
	.st0{fill:#010101;}
</style>
<g>
	<path class="st0" d="M40.1,44.2c2.5-0.6,4.4-2.8,4.4-5.5c0-3.1-2.5-5.7-5.7-5.7c-3.1,0-5.7,2.5-5.7,5.7c0,1.8,0.9,3.4,2.2,4.5
		l-29-6.4v15.3l31.7,0c1.4,0,2.7-0.7,3.4-1.9c0.7,1.1,2,1.9,3.4,1.9c1.4,0,2.7-0.7,3.4-1.9c0.7,1.1,2,1.9,3.4,1.9
		c1.4,0,2.7-0.7,3.4-1.9c0.7,1.1,2,1.9,3.4,1.9c1.4,0,2.7-0.7,3.4-1.9c0.7,1.1,2,1.9,3.4,1.9c1.3,0,2.4-0.6,3.2-1.5L40.1,44.2z
		 M35.9,38.7c0-1.6,1.3-3,3-3c1.6,0,3,1.3,3,3c0,1.6-1.3,3-3,3C37.2,41.7,35.9,40.4,35.9,38.7z"/>
	<path class="st0" d="M64,42.2l-19-4.1c0,0.2,0,0.4,0,0.7c0,0.6-0.1,1.1-0.2,1.6l18.7,4.1L64,42.2"/>
	<path class="st0" d="M9.2,30.3l-0.5,2.2l23.9,5.2c0.1-0.8,0.4-1.5,0.8-2.1L9.2,30.3"/>
	<path class="st0" d="M27.2,24.6l6.5-3.7l-0.7-1.2l-7.9,4.5l-13-2.8c0.1,8.1,9,10.4,9,10.4l13,2.8c1.1-1.3,2.8-2.1,4.7-2.1
		c2.8,0,5.1,1.8,6,4.3l16.4,3.5l4.1-7.5L27.2,24.6"/>
</g>
</svg>
