<?xml version="1.0" encoding="utf-8"?>
<!-- Generator: Adobe Illustrator 26.2.1, SVG Export Plug-In . SVG Version: 6.00 Build 0)  -->
<svg version="1.1" id="Layer_1" xmlns="http://www.w3.org/2000/svg" xmlns:xlink="http://www.w3.org/1999/xlink" x="0px" y="0px"
	 viewBox="0 0 72 72" style="enable-background:new 0 0 72 72;" xml:space="preserve">
<style type="text/css">
	.st0{clip-path:url(#SVGID_00000080919781316029133010000013009797323635529886_);}
	.st1{fill:#FFFFFF;}
</style>
<g>
	<g>
		<defs>
			<rect id="SVGID_1_" x="1.3" y="1.5" width="70" height="69.9"/>
		</defs>
		<clipPath id="SVGID_00000122706657618400834960000015574679804325057191_">
			<use xlink:href="#SVGID_1_"  style="overflow:visible;"/>
		</clipPath>
		<path style="clip-path:url(#SVGID_00000122706657618400834960000015574679804325057191_);" d="M36.3,71.4c19.3,0,35-15.7,35-35
			c0-19.3-15.6-35-35-35s-35,15.7-35,35C1.3,55.8,17,71.4,36.3,71.4"/>
	</g>
</g>
<path class="st1" d="M36.1,21.5c-1.5,0-2.7-1.2-2.7-2.7s1.2-2.7,2.7-2.7s2.7,1.2,2.7,2.7C38.8,20.2,37.6,21.5,36.1,21.5z M57.9,45.1
	l-1.4-9c-0.2-0.8-0.9-1.5-1.8-1.5c-0.5,0-1,0.2-1.3,0.6l-6.6,6.2c-0.1,0.1-0.2,0.2-0.3,0.3c-0.6,0.8-0.4,2.1,0.4,2.7
	c0.2,0.1,0.3,0.2,0.5,0.3l1.7,0.6c-1.6,4.5-5.5,8-10.3,8.9V24.8c2.4-1,4-3.3,4-6c0-3.6-2.9-6.6-6.6-6.6c-3.6,0-6.6,2.9-6.6,6.6
	c0,2.7,1.7,5,4,6v29.4c-4.9-0.9-9-4.4-10.6-9l1.7-0.6c0.2-0.1,0.4-0.2,0.5-0.3c0.8-0.6,1-1.8,0.4-2.7c-0.1-0.1-0.2-0.2-0.3-0.3
	l-6.6-6.2c-0.3-0.4-0.8-0.6-1.3-0.6c-0.9,0-1.6,0.6-1.8,1.5l-1.4,9c0,0.1,0,0.3,0,0.4c0,1.1,0.9,1.9,1.9,1.9c0.2,0,0.4,0,0.6-0.1
	l1.6-0.5c2.5,7.5,9.6,13,17.9,13c8.4,0,15.4-5.4,17.9-13l1.6,0.5c0.2,0.1,0.4,0.1,0.6,0.1c1.1,0,1.9-0.9,1.9-1.9
	C58,45.4,57.9,45.2,57.9,45.1L57.9,45.1z"/>
</svg>
