<?xml version="1.0" encoding="utf-8"?>
<!-- Generator: Adobe Illustrator 26.2.1, SVG Export Plug-In . SVG Version: 6.00 Build 0)  -->
<svg version="1.1" id="Layer_1" xmlns="http://www.w3.org/2000/svg" xmlns:xlink="http://www.w3.org/1999/xlink" x="0px" y="0px"
	 viewBox="0 0 72 72" style="enable-background:new 0 0 72 72;" xml:space="preserve">
<g>
	<path d="M56.5,17.8c-1.9,0-3.4,1.6-3.4,3.7c0,2,1.5,3.7,3.4,3.7c1.9,0,3.4-1.6,3.4-3.7C59.9,19.4,58.4,17.8,56.5,17.8z"/>
	<path d="M28.2,17.8c-1.9,0-3.4,1.6-3.4,3.7c0,2,1.5,3.7,3.4,3.7s3.4-1.6,3.4-3.7C31.6,19.4,30,17.8,28.2,17.8z"/>
	<path d="M71,42.7c0,0-0.9-4.2-4.3-7.9c0,0-0.2,5.1-17,6.9c-0.6-0.8-2.5-1.7-1.2-3.5c1.3-1.8,3.1-4.4,3.8-5.3c0.4-0.5,1-1,1.6-0.3
		c0.9,1,1.6,1.4,2.3,2.1c0.6,0.6,1.7,0.8,2.3,0.1c0.5-0.5,3.1-3.2,3.9-4s1.4-2.2,0.6-3.3c-0.4-0.6-1.6-0.6-2.1,0
		c-1,1.1-1.9,2.1-2.8,2.9c-0.3,0.3-0.8,0.6-1.8-0.5c-1-1-2.3-2.7-2.8-3.3C53,25.9,52,23.9,50,25.8c-2,1.9-4,4.7-6,7.6
		c0,0-2.6,3.8-3.2,6.8c-0.2,1,0,2.1-0.3,2.1c-1.2,0-2.5,0.1-3.9,0.1c-6.4,0-11.4-0.4-15.4-1c-0.5-0.8-1.5-1.7,0.2-4.2
		c1.7-2.5,2.7-3.9,3.3-4.5c0.3-0.4,0.8-1,1.2-0.6c0.5,0.4,1.8,1.4,2.2,1.8c0.9,0.8,1.9,0.4,2.3-0.1l3.3-3.4c0,0,0.6-0.7,1.2-1.3
		c0.6-0.7,0.8-1.9,0.1-2.6c-0.4-0.5-1.3-0.6-1.8-0.1c-0.9,0.9-2.1,2.2-2.6,2.7c-0.8,0.8-0.8,1.6-2,0.3c0,0-2.9-3.4-3.8-3.9
		c0,0-1.5-1.5-2.9-0.2c0,0-5.3,5.5-7.2,8.9c-1.2,2.1-1.7,3.4-1.8,4.3c-0.1,0.6-0.6,0.9-1.1,0.7c-5.6-2.1-5.4-4.5-5.4-4.5
		C3,38.5,2,42.7,2,42.7c-2.1,6.5,3.2,10,3.2,10c4,2.8,6-0.7,6-0.7c0.9,1.4,2.5,2.3,4.3,2.3c1.8,0,3.3-1,4.2-2.3
		c0.9,1.3,2.4,2.2,4.1,2.2c1.9,0,3.4-0.9,4.3-2.4c0.9,1.4,2.4,2.4,4.2,2.4c1.8,0,3.3-0.9,4.2-2.3c0.9,1.4,2.4,2.4,4.2,2.4
		c1.8,0,3.3-0.9,4.2-2.2c0.9,1.3,2.4,2.3,4.2,2.3c1.9,0,3.5-1,4.3-2.5c0.9,1.4,2.4,2.4,4.2,2.4c1.8,0,3.3-1.2,4.2-2.5
		c0,0,2,3.7,6,0.9C67.8,52.7,73,49.1,71,42.7L71,42.7z"/>
</g>
</svg>
