<?xml version="1.0" encoding="utf-8"?>
<!-- Generator: Adobe Illustrator 26.2.1, SVG Export Plug-In . SVG Version: 6.00 Build 0)  -->
<svg version="1.1" id="Layer_1" xmlns="http://www.w3.org/2000/svg" xmlns:xlink="http://www.w3.org/1999/xlink" x="0px" y="0px"
	 viewBox="0 0 72 72" style="enable-background:new 0 0 72 72;" xml:space="preserve">
<style type="text/css">
	.st0{clip-path:url(#SVGID_00000044892529946245862840000000989586254927741118_);}
	
		.st1{clip-path:url(#SVGID_00000055680440742530310280000011360678420983283622_);fill:#FFFFFF;stroke:#FFFFFF;stroke-width:1.3878;}
	
		.st2{clip-path:url(#SVGID_00000082338957167373414990000011814614526502089864_);fill:none;stroke:#FFFFFF;stroke-width:4.5466;stroke-linecap:round;stroke-linejoin:round;}
</style>
<g>
	<g>
		<defs>
			<rect id="SVGID_1_" x="1.3" y="1.5" width="70" height="69.9"/>
		</defs>
		<clipPath id="SVGID_00000133514349826855936820000008505765607127590828_">
			<use xlink:href="#SVGID_1_"  style="overflow:visible;"/>
		</clipPath>
		<path style="clip-path:url(#SVGID_00000133514349826855936820000008505765607127590828_);" d="M36.2,71.4c19.3,0,35-15.7,35-35
			c0-19.3-15.6-35-35-35s-35,15.7-35,35C1.3,55.8,16.9,71.4,36.2,71.4"/>
	</g>
</g>
<g>
	<g>
		<defs>
			<rect id="SVGID_00000099658615269774173560000013292014131807608999_" x="1" y="1" width="70.1" height="70.1"/>
		</defs>
		<clipPath id="SVGID_00000024002617710345134720000007712932067027793045_">
			<use xlink:href="#SVGID_00000099658615269774173560000013292014131807608999_"  style="overflow:visible;"/>
		</clipPath>
		
			<path style="clip-path:url(#SVGID_00000024002617710345134720000007712932067027793045_);fill:#FFFFFF;stroke:#FFFFFF;stroke-width:1.3878;" d="
			M36,57.2c8,0,13.9-6.5,13.9-14.1c0-7.2-10.9-19.4-13.9-29.5c-2.9,10.1-13.9,21.5-13.9,29.9C22.1,51.1,28.4,57.2,36,57.2"/>
	</g>
	<g>
		<defs>
			<rect id="SVGID_00000037667053197849404210000002183833687195884169_" x="1" y="1" width="70.1" height="70.1"/>
		</defs>
		<clipPath id="SVGID_00000119099452242889708870000008104621254244658352_">
			<use xlink:href="#SVGID_00000037667053197849404210000002183833687195884169_"  style="overflow:visible;"/>
		</clipPath>
		
			<path style="clip-path:url(#SVGID_00000119099452242889708870000008104621254244658352_);fill:none;stroke:#FFFFFF;stroke-width:4.5466;stroke-linecap:round;stroke-linejoin:round;" d="
			M36,57.2c8,0,13.9-6.5,13.9-14.1c0-7.2-10.9-19.4-13.9-29.5c-2.9,10.1-13.9,21.5-13.9,29.9C22.1,51.1,28.4,57.2,36,57.2z"/>
	</g>
</g>
</svg>
