<?xml version="1.0" encoding="utf-8"?>
<!-- Generator: Adobe Illustrator 26.2.1, SVG Export Plug-In . SVG Version: 6.00 Build 0)  -->
<svg version="1.1" id="Layer_1" xmlns="http://www.w3.org/2000/svg" xmlns:xlink="http://www.w3.org/1999/xlink" x="0px" y="0px"
	 viewBox="0 0 72 72" style="enable-background:new 0 0 72 72;" xml:space="preserve">
<style type="text/css">
	.st0{fill:#010101;}
</style>
<path class="st0" d="M50.6,40.9c-0.1-1.1-0.5-2.3-1.2-3.4c-0.7-1.1-1.7-2.2-3.1-3.3c-1.4-1-3.5-1.9-6.1-2.6c-0.5-0.2-1-0.3-1.5-0.4
	c-0.1-0.2-0.2-0.3-0.4-0.5l0-8.5c0-0.4,0.4-0.6,0.7-0.5c0.6,0.2,1.1,0.6,1.6,1.2c0.8,0.9,1.2,1.9,1.3,3.2c0,0.3,0.2,0.5,0.5,0.5H49
	c0.3,0,0.5-0.3,0.5-0.5c-0.1-1.6-0.5-3-1.1-4.3c-0.7-1.4-1.5-2.5-2.6-3.4c-1.1-0.9-2.3-1.6-3.7-2.1c-1-0.4-2.1-0.7-3.3-0.9
	c-0.2,0-0.4-0.2-0.4-0.5v-3.8c0-0.3-0.2-0.5-0.5-0.5h-4.5c-0.3,0-0.5,0.2-0.5,0.5V15c0,0.2-0.2,0.4-0.4,0.5
	c-0.9,0.2-1.9,0.4-2.8,0.7c-1.5,0.5-2.8,1.2-3.9,2.2c-1.1,0.9-2.1,2.1-2.7,3.5s-1,3-1,4.8c0,1.8,0.3,3.3,0.9,4.5
	c0.6,1.2,1.4,2.2,2.4,3c1,0.8,2.2,1.4,3.4,1.9c1.3,0.5,2.6,0.9,3.9,1.3c0.1,0,0.2,0,0.3,0.1v10.4c0,0.4-0.4,0.6-0.7,0.4
	c-0.7-0.4-1.4-0.9-1.9-1.5c-1-1.1-1.5-2.5-1.6-4.3c0-0.3-0.2-0.5-0.5-0.5h-6.5c-0.3,0-0.5,0.3-0.5,0.6c0.4,3.9,1.7,6.9,3.8,9
	c1.9,1.8,4.4,3,7.5,3.5c0.2,0,0.4,0.2,0.4,0.5v4c0,0.3,0.2,0.5,0.5,0.5h4.5c0.3,0,0.5-0.2,0.5-0.5v-3.9c0-0.2,0.2-0.5,0.4-0.5
	c2.1-0.2,3.9-0.7,5.3-1.5c1.7-0.9,3.1-1.9,4.1-3c1-1.1,1.7-2.3,2.1-3.5c0.4-1.2,0.6-2.2,0.6-3C50.8,43.1,50.8,42.1,50.6,40.9z
	 M30.7,28.6c-0.7-0.6-1.1-1.5-1.1-2.7c0-0.7,0.1-1.4,0.4-1.9c0.3-0.6,0.6-1,1.1-1.4c0.5-0.4,1-0.6,1.5-0.8c0.1,0,0.2,0,0.3-0.1V29
	c0,0.4-0.4,0.6-0.7,0.5C31.6,29.2,31,28.9,30.7,28.6z M42.7,45.9c-0.4,0.6-0.8,1.1-1.4,1.6c-0.6,0.4-1.2,0.8-1.9,1
	c-0.4,0.1-0.8,0.2-1.2,0.3v-9.2c0-0.3,0.3-0.6,0.6-0.5c1.3,0.4,2.3,0.9,3,1.4c0.9,0.7,1.3,1.7,1.3,3.1
	C43.3,44.5,43.1,45.2,42.7,45.9z"/>
</svg>
