<?xml version="1.0" encoding="utf-8"?>
<!-- Generator: Adobe Illustrator 26.2.1, SVG Export Plug-In . SVG Version: 6.00 Build 0)  -->
<svg version="1.1" id="Layer_1" xmlns="http://www.w3.org/2000/svg" xmlns:xlink="http://www.w3.org/1999/xlink" x="0px" y="0px"
	 viewBox="0 0 72 72" style="enable-background:new 0 0 72 72;" xml:space="preserve">
<style type="text/css">
	.st0{clip-path:url(#SVGID_00000057112840321878866870000009876814832203723706_);}
	.st1{fill:#FFFFFF;}
</style>
<g>
	<g>
		<defs>
			<rect id="SVGID_1_" x="1.6" y="1.1" width="70" height="69.9"/>
		</defs>
		<clipPath id="SVGID_00000140735249081147752670000000448347465404793759_">
			<use xlink:href="#SVGID_1_"  style="overflow:visible;"/>
		</clipPath>
		<path style="clip-path:url(#SVGID_00000140735249081147752670000000448347465404793759_);" d="M36.5,71c19.3,0,35-15.7,35-35
			c0-19.3-15.6-35-35-35s-35,15.7-35,35C1.6,55.3,17.2,71,36.5,71"/>
	</g>
</g>
<g>
	<path class="st1" d="M34.4,45v11.8c0,0,0.4,3.1-3.5,3.1H15.7c-3.9,0-3.5-3.1-3.5-3.1V45H34.4z"/>
	<path class="st1" d="M27.4,11.5c-0.5-0.9-1.5-1.4-2.6-1.4h-4.9c-1.7,0-3.1,1.4-3.1,3.2c0,0.6,0.2,1.2,0.5,1.7l0,0
		c1.5,2.1,2.3,4.6,2.3,7.3c0,4.6-2.5,8.7-6.1,10.9l0,0c-0.7,0.5-1.2,1.2-1.2,2.2v3.8h22.2V25.4c0,0,0-1.3-0.8-2.9L27.4,11.5z"/>
	<path class="st1" d="M45.1,11.5c0.5-0.9,1.5-1.4,2.6-1.4h4.9c1.7,0,3.1,1.4,3.1,3.2c0,0.6-0.2,1.2-0.5,1.7l0,0
		c-1.4,2.1-2.3,4.6-2.3,7.3c0,4.6,2.5,8.7,6.1,10.9l0,0c0.7,0.5,1.2,1.2,1.2,2.2v3.8H38V25.3c0,0,0-1.3,0.8-2.9L45.1,11.5z"/>
	<path class="st1" d="M60.2,45v11.8c0,0,0.4,3.1-3.5,3.1H41.5c-3.9,0-3.5-3.1-3.5-3.1V45H60.2z"/>
	<path class="st1" d="M38.1,43.2c0.6,0,1.1-0.5,1.1-1.1s-0.5-1-1.1-1h-3.5c-0.6,0-1,0.5-1,1c0,0.6,0.5,1.1,1,1.1H38.1z"/>
</g>
</svg>
