<?xml version="1.0" encoding="utf-8"?>
<!-- Generator: Adobe Illustrator 26.2.1, SVG Export Plug-In . SVG Version: 6.00 Build 0)  -->
<svg version="1.1" id="Layer_1" xmlns="http://www.w3.org/2000/svg" xmlns:xlink="http://www.w3.org/1999/xlink" x="0px" y="0px"
	 viewBox="0 0 72 72" style="enable-background:new 0 0 72 72;" xml:space="preserve">
<g>
	<path d="M33.2,45v11.8c0,0,0.4,3.1-3.5,3.1H14.5c-3.9,0-3.5-3.1-3.5-3.1V45H33.2z"/>
	<path d="M26.2,11.5c-0.5-0.9-1.5-1.4-2.6-1.4l-4.9,0c-1.7,0-3.1,1.4-3.1,3.2c0,0.6,0.2,1.2,0.5,1.7l0,0c1.5,2.1,2.3,4.6,2.3,7.3
		c0,4.6-2.5,8.7-6.1,10.9l0,0c-0.7,0.5-1.2,1.2-1.2,2.2v3.8h22.2l0-13.8c0,0,0-1.3-0.8-2.9L26.2,11.5z"/>
	<path d="M43.9,11.5c0.5-0.9,1.5-1.4,2.6-1.4l4.9,0c1.7,0,3.1,1.4,3.1,3.2c0,0.6-0.2,1.2-0.5,1.7l0,0c-1.4,2.1-2.3,4.6-2.3,7.3
		c0,4.6,2.5,8.7,6.1,10.9l0,0c0.7,0.5,1.2,1.2,1.2,2.2v3.8l-22.2,0V25.3c0,0,0-1.3,0.8-2.9L43.9,11.5z"/>
	<path d="M59,45v11.8c0,0,0.4,3.1-3.5,3.1H40.3c-3.9,0-3.5-3.1-3.5-3.1V45H59z"/>
	<path d="M36.9,43.2c0.6,0,1.1-0.5,1.1-1.1c0-0.6-0.5-1-1.1-1h-3.5c-0.6,0-1,0.5-1,1c0,0.6,0.5,1.1,1,1.1H36.9z"/>
</g>
</svg>
