<?xml version="1.0" encoding="utf-8"?>
<!-- Generator: Adobe Illustrator 26.2.1, SVG Export Plug-In . SVG Version: 6.00 Build 0)  -->
<svg version="1.1" id="Layer_1" xmlns="http://www.w3.org/2000/svg" xmlns:xlink="http://www.w3.org/1999/xlink" x="0px" y="0px"
	 viewBox="0 0 72 72" style="enable-background:new 0 0 72 72;" xml:space="preserve">
<style type="text/css">
	.st0{clip-path:url(#SVGID_00000062881664972881579940000002448662196450965667_);fill:#010101;}
</style>
<g>
	<defs>
		<rect id="SVGID_1_" x="1.3" y="1.3" width="69.4" height="69.4"/>
	</defs>
	<clipPath id="SVGID_00000062907999989487695990000001011157525487441569_">
		<use xlink:href="#SVGID_1_"  style="overflow:visible;"/>
	</clipPath>
	<path style="clip-path:url(#SVGID_00000062907999989487695990000001011157525487441569_);fill:#010101;" d="M26.2,11.2
		c2.9,0,3.7-0.1,3.7,2.8v18.3c0,0,0,0,0,0v26.9c0,1.7-1.4,3-3,3c-1.7,0-3-1.4-3-3V35.2c-2.3,0-3,0.2-3-2.4V16.3
		C21,13.4,23.3,11.2,26.2,11.2 M39,12.6c0-0.8,0.7-1.5,1.5-1.5c0.8,0,1.5,0.7,1.5,1.5v12h1.5v-12c0-0.8,0.7-1.5,1.5-1.5
		c0.8,0,1.5,0.7,1.5,1.5v12H48v-12c0-0.8,0.7-1.5,1.5-1.5c0.8,0,1.5,0.7,1.5,1.5v12h0v1.6c0,2-1.3,3.7-3.1,4.3c0,0.1,0,0.2,0,0.3
		v28.4c0,1.7-1.4,3-3,3c-1.7,0-3-1.4-3-3V30.8c0-0.1,0-0.2,0-0.3c-1.7-0.6-3-2.3-3-4.3v-1.6h0V12.6z"/>
</g>
</svg>
