<?xml version="1.0" encoding="utf-8"?>
<!-- Generator: Adobe Illustrator 26.2.1, SVG Export Plug-In . SVG Version: 6.00 Build 0)  -->
<svg version="1.1" id="Layer_1" xmlns="http://www.w3.org/2000/svg" xmlns:xlink="http://www.w3.org/1999/xlink" x="0px" y="0px"
	 viewBox="0 0 72 72" style="enable-background:new 0 0 72 72;" xml:space="preserve">
<style type="text/css">
	.st0{clip-path:url(#SVGID_00000076599011703264642480000000580787807780792237_);}
	.st1{clip-path:url(#SVGID_00000176014613443067479720000003842881268048898948_);fill:#FFFFFF;}
</style>
<g>
	<g>
		<defs>
			<rect id="SVGID_1_" x="1.3" y="1.1" width="70" height="69.9"/>
		</defs>
		<clipPath id="SVGID_00000047756117625498348450000009918379109713303467_">
			<use xlink:href="#SVGID_1_"  style="overflow:visible;"/>
		</clipPath>
		<path style="clip-path:url(#SVGID_00000047756117625498348450000009918379109713303467_);" d="M36.2,71c19.3,0,35-15.7,35-35
			c0-19.3-15.6-35-35-35s-35,15.7-35,35C1.3,55.3,16.9,71,36.2,71"/>
	</g>
</g>
<g>
	<g>
		<defs>
			<rect id="SVGID_00000183946122780787790070000012626418720161539724_" x="1.3" y="1.3" width="69.4" height="69.4"/>
		</defs>
		<clipPath id="SVGID_00000067201160825569822950000006812739471543870396_">
			<use xlink:href="#SVGID_00000183946122780787790070000012626418720161539724_"  style="overflow:visible;"/>
		</clipPath>
		<path style="clip-path:url(#SVGID_00000067201160825569822950000006812739471543870396_);fill:#FFFFFF;" d="M26.2,11.2
			c2.9,0,3.7-0.1,3.7,2.8v18.3l0,0v26.9c0,1.7-1.4,3-3,3c-1.7,0-3-1.4-3-3v-24c-2.3,0-3,0.2-3-2.4V16.3C21,13.4,23.3,11.2,26.2,11.2
			 M39,12.6c0-0.8,0.7-1.5,1.5-1.5s1.5,0.7,1.5,1.5v12h1.5v-12c0-0.8,0.7-1.5,1.5-1.5s1.5,0.7,1.5,1.5v12H48v-12
			c0-0.8,0.7-1.5,1.5-1.5s1.5,0.7,1.5,1.5v12l0,0v1.6c0,2-1.3,3.7-3.1,4.3c0,0.1,0,0.2,0,0.3v28.4c0,1.7-1.4,3-3,3c-1.7,0-3-1.4-3-3
			V30.8c0-0.1,0-0.2,0-0.3c-1.7-0.6-3-2.3-3-4.3v-1.6l0,0L39,12.6L39,12.6z"/>
	</g>
</g>
</svg>
