<?xml version="1.0" encoding="utf-8"?>
<!-- Generator: Adobe Illustrator 26.2.1, SVG Export Plug-In . SVG Version: 6.00 Build 0)  -->
<svg version="1.1" id="Layer_1" xmlns="http://www.w3.org/2000/svg" xmlns:xlink="http://www.w3.org/1999/xlink" x="0px" y="0px"
	 viewBox="0 0 72 72" style="enable-background:new 0 0 72 72;" xml:space="preserve">
<style type="text/css">
	.st0{fill:#FFFFFF;}
	.st1{clip-path:url(#SVGID_00000132773773663702058790000006807081951796185472_);}
	.st2{fill:#6D6A64;stroke:#FFFFFF;stroke-width:7.3503;stroke-miterlimit:10;}
</style>
<path class="st0" d="M50.6,40.9c-0.1-1.1-0.5-2.3-1.2-3.4c-0.7-1.1-1.7-2.2-3.1-3.3c-1.4-1-3.5-1.9-6.1-2.6c-0.5-0.2-1-0.3-1.5-0.4
	c-0.1-0.2-0.2-0.3-0.4-0.5v-8.5c0-0.4,0.4-0.6,0.7-0.5c0.6,0.2,1.1,0.6,1.6,1.2c0.8,0.9,1.2,1.9,1.3,3.2c0,0.3,0.2,0.5,0.5,0.5H49
	c0.3,0,0.5-0.3,0.5-0.5c-0.1-1.6-0.5-3-1.1-4.3c-0.7-1.4-1.5-2.5-2.6-3.4s-2.3-1.6-3.7-2.1c-1-0.4-2.1-0.7-3.3-0.9
	c-0.2,0-0.4-0.2-0.4-0.5v-3.8c0-0.3-0.2-0.5-0.5-0.5h-4.5c-0.3,0-0.5,0.2-0.5,0.5V15c0,0.2-0.2,0.4-0.4,0.5
	c-0.9,0.2-1.9,0.4-2.8,0.7c-1.5,0.5-2.8,1.2-3.9,2.2c-1.1,0.9-2.1,2.1-2.7,3.5s-1,3-1,4.8s0.3,3.3,0.9,4.5s1.4,2.2,2.4,3
	s2.2,1.4,3.4,1.9c1.3,0.5,2.6,0.9,3.9,1.3c0.1,0,0.2,0,0.3,0.1v10.4c0,0.4-0.4,0.6-0.7,0.4c-0.7-0.4-1.4-0.9-1.9-1.5
	c-1-1.1-1.5-2.5-1.6-4.3c0-0.3-0.2-0.5-0.5-0.5h-6.5c-0.3,0-0.5,0.3-0.5,0.6c0.4,3.9,1.7,6.9,3.8,9c1.9,1.8,4.4,3,7.5,3.5
	c0.2,0,0.4,0.2,0.4,0.5v4c0,0.3,0.2,0.5,0.5,0.5H38c0.3,0,0.5-0.2,0.5-0.5v-3.9c0-0.2,0.2-0.5,0.4-0.5c2.1-0.2,3.9-0.7,5.3-1.5
	c1.7-0.9,3.1-1.9,4.1-3s1.7-2.3,2.1-3.5c0.4-1.2,0.6-2.2,0.6-3C50.8,43.1,50.8,42.1,50.6,40.9z M30.7,28.6c-0.7-0.6-1.1-1.5-1.1-2.7
	c0-0.7,0.1-1.4,0.4-1.9c0.3-0.6,0.6-1,1.1-1.4s1-0.6,1.5-0.8c0.1,0,0.2,0,0.3-0.1V29c0,0.4-0.4,0.6-0.7,0.5
	C31.6,29.2,31,28.9,30.7,28.6z M42.7,45.9c-0.4,0.6-0.8,1.1-1.4,1.6c-0.6,0.4-1.2,0.8-1.9,1c-0.4,0.1-0.8,0.2-1.2,0.3v-9.2
	c0-0.3,0.3-0.6,0.6-0.5c1.3,0.4,2.3,0.9,3,1.4c0.9,0.7,1.3,1.7,1.3,3.1C43.3,44.5,43.1,45.2,42.7,45.9z"/>
<g>
	<g>
		<defs>
			<rect id="SVGID_1_" x="2.6" y="1.8" width="68.1" height="68"/>
		</defs>
		<clipPath id="SVGID_00000108266770103796671390000013081740436220328366_">
			<use xlink:href="#SVGID_1_"  style="overflow:visible;"/>
		</clipPath>
		<path style="clip-path:url(#SVGID_00000108266770103796671390000013081740436220328366_);" d="M36.7,69.9c18.8,0,34-15.2,34-34
			c0-18.8-15.2-34-34-34s-34,15.2-34,34C2.6,54.6,17.9,69.9,36.7,69.9"/>
	</g>
	<line class="st2" x1="9.8" y1="9.3" x2="61.3" y2="60.9"/>
	<g>
		<path class="st0" d="M33.9,63.2c-1.2,0-2.1-0.9-2.1-2.1v-3.3c-3.2-0.6-5.8-2-7.8-3.9c-2.5-2.4-4-5.9-4.5-10.4
			c-0.1-0.6,0.1-1.2,0.5-1.6c0.4-0.4,1-0.7,1.6-0.7h6.8c1.1,0,2,0.9,2.1,2c0,1.5,0.5,2.6,1.3,3.5c0,0,0,0,0.1,0.1v-7.6
			c-1.1-0.3-2.2-0.7-3.3-1.1c-1.5-0.6-2.9-1.3-4-2.3c-1.2-1-2.2-2.2-3-3.7c-0.7-1.5-1.1-3.3-1.1-5.4c0-2.1,0.4-4.1,1.3-5.7
			c0.8-1.6,1.9-3.1,3.3-4.2c1.3-1.1,2.9-2,4.6-2.6c0.7-0.3,1.5-0.5,2.3-0.6v-3.1c0-1.2,0.9-2.1,2.1-2.1h4.7c1.2,0,2.1,0.9,2.1,2.1
			v3.1c1,0.2,1.9,0.5,2.8,0.8c1.6,0.6,3.1,1.5,4.4,2.5c1.3,1.1,2.3,2.5,3.1,4.1c0.7,1.5,1.2,3.1,1.4,5c0.1,0.6-0.1,1.2-0.5,1.6
			c-0.4,0.4-1,0.7-1.5,0.7h-6.9c-1.1,0-2-0.8-2.1-1.9c-0.1-0.7-0.3-1.3-0.6-1.9v5.8c0.3,0.1,0.5,0.1,0.8,0.2c3,0.8,5.2,1.8,6.9,3
			c1.7,1.2,2.9,2.5,3.7,3.9c0.8,1.4,1.3,2.8,1.5,4.2c0.1,1.3,0.2,2.4,0.2,3.4c0,1-0.2,2.2-0.7,3.6c-0.5,1.5-1.3,2.9-2.5,4.2
			c-1.2,1.3-2.8,2.5-4.7,3.5c-1.4,0.7-3.2,1.3-5.2,1.6v3.1c0,1.2-0.9,2.1-2.1,2.1H33.9z M40.7,47.9c0.2-0.1,0.4-0.3,0.6-0.4
			c0.4-0.3,0.8-0.7,1-1.2c0.2-0.4,0.4-0.9,0.4-1.5c0-1.3-0.4-1.8-0.8-2c-0.2-0.2-0.6-0.4-1.2-0.7V47.9z M31.7,24.7
			c-0.2,0.4-0.3,0.8-0.3,1.4c0,0.7,0.2,1.1,0.4,1.4v-2.9C31.8,24.5,31.8,24.6,31.7,24.7z"/>
		<path d="M38.6,10.1c0.3,0,0.5,0.2,0.5,0.5v3.9c0,0.3,0.2,0.5,0.4,0.5c1.2,0.2,2.3,0.5,3.4,0.9c1.5,0.5,2.8,1.3,3.9,2.2
			c1.1,1,2,2.1,2.7,3.6c0.6,1.3,1,2.8,1.2,4.5c0,0.3-0.2,0.6-0.5,0.6h-6.9c-0.3,0-0.5-0.2-0.5-0.5c-0.1-1.3-0.6-2.4-1.4-3.3
			c-0.5-0.6-1-1-1.6-1.2c-0.1,0-0.1,0-0.2,0c-0.3,0-0.5,0.2-0.5,0.5l0,8.9c0.2,0.2,0.2,0.3,0.4,0.5c0.5,0.1,1,0.3,1.6,0.4
			c2.8,0.7,4.9,1.7,6.4,2.8c1.5,1.1,2.6,2.3,3.3,3.4c0.7,1.2,1.1,2.4,1.3,3.6c0.1,1.2,0.2,2.3,0.2,3.2c0,0.8-0.2,1.9-0.6,3.1
			c-0.4,1.3-1.1,2.5-2.2,3.7c-1.1,1.2-2.5,2.3-4.3,3.2c-1.5,0.8-3.4,1.3-5.6,1.5c-0.3,0-0.5,0.2-0.5,0.5v4.1c0,0.3-0.2,0.5-0.5,0.5
			h-4.7c-0.3,0-0.5-0.2-0.5-0.5V57c0-0.3-0.2-0.5-0.4-0.5c-3.3-0.5-5.9-1.7-7.8-3.6c-2.2-2.2-3.6-5.3-4-9.5c0-0.3,0.2-0.6,0.5-0.6
			h6.8c0.3,0,0.5,0.2,0.5,0.5c0.1,1.9,0.6,3.4,1.7,4.5c0.6,0.6,1.3,1.1,2,1.5c0.1,0,0.2,0.1,0.2,0.1c0.3,0,0.5-0.2,0.5-0.5V38
			c-0.1,0-0.2,0-0.3-0.1c-1.4-0.4-2.7-0.8-4.1-1.3c-1.3-0.5-2.6-1.2-3.6-2c-1.1-0.8-1.9-1.9-2.5-3.1c-0.6-1.3-1-2.8-1-4.7
			c0-1.9,0.4-3.6,1.1-5c0.7-1.5,1.7-2.7,2.9-3.7c1.2-1,2.6-1.8,4.1-2.3c1-0.3,1.9-0.6,2.9-0.7c0.2,0,0.4-0.2,0.4-0.5v-4
			c0-0.3,0.2-0.5,0.5-0.5H38.6 M32.9,29.9c0.3,0,0.5-0.2,0.5-0.5v-7.8c-0.1,0-0.2,0-0.3,0.1c-0.6,0.2-1.1,0.5-1.6,0.9
			c-0.5,0.4-0.9,0.9-1.1,1.5c-0.3,0.6-0.4,1.3-0.4,2c0,1.2,0.4,2.2,1.2,2.9c0.4,0.3,0.9,0.7,1.6,0.9C32.8,29.9,32.8,29.9,32.9,29.9
			 M39.1,50c0.4-0.1,0.8-0.2,1.2-0.3c0.7-0.2,1.4-0.6,2-1c0.6-0.4,1.1-1,1.4-1.7c0.4-0.7,0.6-1.4,0.6-2.3c0-1.5-0.5-2.6-1.4-3.3
			c-0.7-0.5-1.7-1-3.1-1.5c-0.1,0-0.1,0-0.2,0c-0.3,0-0.5,0.2-0.5,0.5V50 M38.6,6.9h-4.7c-2,0-3.7,1.6-3.7,3.7v1.9
			c-0.4,0.1-0.8,0.2-1.2,0.4c-1.9,0.7-3.6,1.6-5.1,2.8c-1.5,1.3-2.8,2.8-3.7,4.7c-0.9,1.9-1.4,4.1-1.4,6.5c0,2.4,0.4,4.4,1.3,6.1
			c0.8,1.7,2,3.1,3.4,4.2c1.3,1,2.8,1.9,4.5,2.5c0,0,0.1,0,0.1,0h-6.4c-1,0-2,0.4-2.7,1.2c-0.7,0.8-1,1.8-0.9,2.8
			c0.5,4.9,2.2,8.7,5,11.4c2,1.9,4.4,3.2,7.3,4v2c0,2,1.6,3.7,3.7,3.7h4.7c2,0,3.7-1.6,3.7-3.7v-1.8c1.6-0.3,3.1-0.8,4.3-1.5
			c2.1-1.1,3.9-2.4,5.2-3.9c1.3-1.5,2.3-3.1,2.9-4.8c0.5-1.6,0.8-2.9,0.8-4.1c0-1-0.1-2.2-0.2-3.5c-0.2-1.6-0.7-3.3-1.7-4.9
			c-0.9-1.6-2.3-3-4.1-4.4c-1.2-0.9-2.7-1.7-4.5-2.4h5.5c1,0,2-0.4,2.7-1.2c0.7-0.8,1-1.8,0.9-2.8c-0.2-2.1-0.7-4-1.5-5.6
			c-0.9-1.8-2.1-3.3-3.5-4.6c-1.4-1.2-3-2.1-4.8-2.8c-0.6-0.2-1.2-0.4-1.8-0.6v-1.8C42.3,8.6,40.6,6.9,38.6,6.9L38.6,6.9z"/>
	</g>
</g>
</svg>
