<?xml version="1.0" encoding="utf-8"?>
<!-- Generator: Adobe Illustrator 26.2.1, SVG Export Plug-In . SVG Version: 6.00 Build 0)  -->
<svg version="1.1" id="Layer_1" xmlns="http://www.w3.org/2000/svg" xmlns:xlink="http://www.w3.org/1999/xlink" x="0px" y="0px"
	 viewBox="0 0 72 72" style="enable-background:new 0 0 72 72;" xml:space="preserve">
<style type="text/css">
	.st0{clip-path:url(#SVGID_00000137825030607029131670000016693955042984397198_);}
	.st1{fill:#FFFFFF;}
</style>
<g>
	<g>
		<g>
			<g>
				<defs>
					<rect id="SVGID_1_" x="2.2" y="2.2" width="68.8" height="68.8"/>
				</defs>
				<clipPath id="SVGID_00000101788776557770828040000014546660513268204164_">
					<use xlink:href="#SVGID_1_"  style="overflow:visible;"/>
				</clipPath>
				<path style="clip-path:url(#SVGID_00000101788776557770828040000014546660513268204164_);" d="M36.7,70.9
					C55.6,70.9,71,55.6,71,36.6S55.6,2.3,36.7,2.3S2.2,17.5,2.2,36.6C2.2,55.6,17.6,70.9,36.7,70.9"/>
			</g>
		</g>
	</g>
	<path class="st1" d="M36.7,67.7L36.7,67.7c-1,0-1.8-0.1-2.5-0.1l0.5-5.4c0.7,0,1.4,0.1,2,0.1L36.7,67.7z M46.2,66.2L44.6,61
		c0.7-0.1,1.2-0.4,1.9-0.7l2,5C47.8,65.6,47,65.9,46.2,66.2z M24.8,65.4c-0.8-0.3-1.5-0.7-2.2-1l2.3-4.9c0.5,0.3,1.2,0.5,1.9,0.8
		L24.8,65.4z M56.8,60.2l-3.5-4.1c0.5-0.4,1-1,1.5-1.4l3.8,3.8C58.1,59.1,57.5,59.6,56.8,60.2z M14.6,58.7c-0.5-0.5-1.1-1.2-1.6-1.8
		l4.1-3.5c0.4,0.5,0.8,1,1.4,1.5L14.6,58.7z M64.3,50.6l-4.8-2.5c0.3-0.5,0.5-1.2,0.8-1.8l5,2C65,49.3,64.7,50,64.3,50.6z M7.9,48.5
		c-0.3-0.8-0.5-1.5-0.8-2.3l5.2-1.6c0.1,0.7,0.4,1.2,0.7,1.9L7.9,48.5z M67.6,39.1l-5.4-0.4c0-0.7,0.1-1.4,0.1-2l5.4-0.1v0.1
		C67.7,37.4,67.7,38.3,67.6,39.1z M5.8,36.6L5.8,36.6c0-0.8,0-1.6,0.1-2.5l5.4,0.4c0,0.7-0.1,1.4-0.1,2H5.8z M61.1,28.6
		c-0.3-0.7-0.4-1.2-0.7-1.9l5-2c0.3,0.7,0.5,1.5,0.8,2.3L61.1,28.6z M13,26.8l-5-1.9c0.3-0.8,0.7-1.5,1-2.2l4.9,2.3
		C13.5,25.4,13.2,26.1,13,26.8z M56,19.9c-0.4-0.5-1-1-1.4-1.5l3.8-3.8c0.5,0.5,1.1,1.2,1.6,1.8L56,19.9z M18.4,18.4l-3.8-3.8
		c0.5-0.5,1.2-1.1,1.8-1.6l3.5,4.1C19.4,17.4,18.8,18,18.4,18.4z M48.3,13.7c-0.5-0.3-1.2-0.5-1.9-0.8l2-5c0.8,0.3,1.5,0.7,2.2,1
		L48.3,13.7z M26.7,12.9l-2-5c0.7-0.3,1.5-0.5,2.3-0.8l1.6,5.2C28,12.5,27.3,12.6,26.7,12.9z M38.6,11c-0.7,0-1.2-0.1-1.9-0.1
		l-0.3-5.4h0.3c0.8,0,1.5,0,2.3,0.1L38.6,11z"/>
	<path class="st1" d="M44.3,18l-11,14.6c-0.1,0.3-0.1,0.5,0.1,0.7l7.5,3.3c0.3,0.1,0.5,0,0.7-0.4l3.5-17.8
		C45.3,17.8,44.6,17.5,44.3,18z"/>
	<path class="st1" d="M28.5,54.1L32,35.4c0-0.3,0.4-0.5,0.7-0.4l7.5,3.3c0.3,0.1,0.4,0.5,0.1,0.7l-11,15.4
		C29,54.9,28.4,54.6,28.5,54.1z"/>
</g>
</svg>
