<?xml version="1.0" encoding="utf-8"?>
<!-- Generator: Adobe Illustrator 26.2.1, SVG Export Plug-In . SVG Version: 6.00 Build 0)  -->
<svg version="1.1" id="Layer_1" xmlns="http://www.w3.org/2000/svg" xmlns:xlink="http://www.w3.org/1999/xlink" x="0px" y="0px"
	 viewBox="0 0 72 72" style="enable-background:new 0 0 72 72;" xml:space="preserve">
<style type="text/css">
	.st0{clip-path:url(#SVGID_00000023996833445500461640000012517211130383162274_);}
	.st1{fill:#FFFFFF;}
</style>
<g>
	<g>
		<g>
			<defs>
				<rect id="SVGID_1_" x="10.2" y="11.3" width="50.5" height="50.5"/>
			</defs>
			<clipPath id="SVGID_00000039123706677314379500000001972279460615249581_">
				<use xlink:href="#SVGID_1_"  style="overflow:visible;"/>
			</clipPath>
			<path style="clip-path:url(#SVGID_00000039123706677314379500000001972279460615249581_);" d="M35.5,61.8
				c13.9,0,25.2-11.3,25.2-25.2c0-13.9-11.3-25.2-25.2-25.2S10.2,22.6,10.2,36.6C10.2,50.5,21.5,61.8,35.5,61.8"/>
		</g>
	</g>
	<path class="st1" d="M35.5,59.4L35.5,59.4c-0.7,0-1.3-0.1-1.8-0.1l0.4-4c0.5,0,1,0.1,1.5,0.1L35.5,59.4z M42.5,58.3l-1.2-3.8
		c0.5-0.1,0.9-0.3,1.4-0.5l1.5,3.7C43.7,57.9,43.1,58.1,42.5,58.3z M26.8,57.7c-0.6-0.2-1.1-0.5-1.6-0.7l1.7-3.6
		c0.4,0.2,0.9,0.4,1.4,0.6L26.8,57.7z M50.3,53.9l-2.6-3c0.4-0.3,0.7-0.7,1.1-1l2.8,2.8C51.2,53.1,50.8,53.5,50.3,53.9z M19.3,52.8
		c-0.4-0.4-0.8-0.9-1.2-1.3l3-2.6c0.3,0.4,0.6,0.7,1,1.1L19.3,52.8z M55.8,46.9l-3.5-1.8c0.2-0.4,0.4-0.9,0.6-1.3l3.7,1.5
		C56.3,45.9,56.1,46.4,55.8,46.9z M14.4,45.3c-0.2-0.6-0.4-1.1-0.6-1.7l3.8-1.2c0.1,0.5,0.3,0.9,0.5,1.4L14.4,45.3z M58.2,38.4
		l-4-0.3c0-0.5,0.1-1,0.1-1.5l4-0.1v0.1C58.3,37.2,58.3,37.8,58.2,38.4z M12.8,36.6L12.8,36.6c0-0.6,0-1.2,0.1-1.8l4,0.3
		c0,0.5-0.1,1-0.1,1.5L12.8,36.6z M53.4,30.7c-0.2-0.5-0.3-0.9-0.5-1.4l3.7-1.5c0.2,0.5,0.4,1.1,0.6,1.7L53.4,30.7z M18.1,29.4
		l-3.7-1.4c0.2-0.6,0.5-1.1,0.7-1.6l3.6,1.7C18.5,28.4,18.3,28.9,18.1,29.4z M49.7,24.3c-0.3-0.4-0.7-0.7-1-1.1l2.8-2.8
		c0.4,0.4,0.8,0.9,1.2,1.3L49.7,24.3z M22.1,23.2l-2.8-2.8c0.4-0.4,0.9-0.8,1.3-1.2l2.6,3C22.8,22.5,22.4,22.9,22.1,23.2z M44,19.8
		c-0.4-0.2-0.9-0.4-1.4-0.6l1.5-3.7c0.6,0.2,1.1,0.5,1.6,0.7L44,19.8z M28.2,19.2l-1.5-3.7c0.5-0.2,1.1-0.4,1.7-0.6l1.2,3.8
		C29.1,18.9,28.6,19,28.2,19.2z M36.9,17.8c-0.5,0-0.9-0.1-1.4-0.1l-0.2-4l0.2,0c0.6,0,1.1,0,1.7,0.1L36.9,17.8z"/>
	<path class="st1" d="M41.1,22.9L33,33.6c-0.1,0.2-0.1,0.4,0.1,0.5l5.5,2.4c0.2,0.1,0.4,0,0.5-0.3l2.6-13.1
		C41.8,22.8,41.3,22.6,41.1,22.9z"/>
	<path class="st1" d="M29.5,49.4l2.6-13.7c0-0.2,0.3-0.4,0.5-0.3l5.5,2.4c0.2,0.1,0.3,0.4,0.1,0.5l-8.1,11.3
		C29.9,50,29.4,49.8,29.5,49.4z"/>
</g>
</svg>
