<?xml version="1.0" encoding="utf-8"?>
<!-- Generator: Adobe Illustrator 26.2.1, SVG Export Plug-In . SVG Version: 6.00 Build 0)  -->
<svg version="1.1" id="Layer_1" xmlns="http://www.w3.org/2000/svg" xmlns:xlink="http://www.w3.org/1999/xlink" x="0px" y="0px"
	 viewBox="0 0 72 72" style="enable-background:new 0 0 72 72;" xml:space="preserve">
<style type="text/css">
	.st0{clip-path:url(#SVGID_00000003816141187555510150000009273620070459823537_);}
	.st1{fill:#FFFFFF;}
</style>
<g>
	<g>
		<defs>
			<rect id="SVGID_1_" x="1.3" y="1.5" width="70" height="69.9"/>
		</defs>
		<clipPath id="SVGID_00000084517833826980467610000009600054766959958169_">
			<use xlink:href="#SVGID_1_"  style="overflow:visible;"/>
		</clipPath>
		<path style="clip-path:url(#SVGID_00000084517833826980467610000009600054766959958169_);" d="M36.3,71.4c19.3,0,35-15.7,35-35
			c0-19.3-15.6-35-35-35s-35,15.7-35,35C1.3,55.8,17,71.4,36.3,71.4"/>
	</g>
</g>
<g>
	<path class="st1" d="M54.6,18.5c-1.7,0-3,1.3-3,3c0,1.7,1.4,3,3,3c1.7,0,3-1.4,3-3C57.7,19.9,56.3,18.5,54.6,18.5z"/>
	<path class="st1" d="M29.2,18.5c-1.7,0-3,1.3-3,3c0,1.7,1.4,3,3,3c1.7,0,3-1.4,3-3C32.2,19.9,30.8,18.5,29.2,18.5z"/>
	<path class="st1" d="M67.6,39.1c0,0-0.8-3.5-3.9-6.6c0,0-0.2,4.2-15.3,5.7c-0.5-0.6-2.3-1.4-1.1-2.9c1.2-1.5,2.8-3.6,3.4-4.3
		c0.3-0.4,0.9-0.8,1.5-0.2c0.8,0.8,1.5,1.2,2.1,1.7c0.6,0.5,1.5,0.6,2.1,0.1c0.4-0.4,2.8-2.6,3.5-3.3c0.7-0.7,1.2-1.8,0.5-2.8
		c-0.4-0.5-1.4-0.5-1.9,0c-0.9,0.9-1.7,1.7-2.5,2.4c-0.3,0.3-0.7,0.5-1.6-0.4c-0.9-0.8-2.1-2.2-2.5-2.7s-1.4-2.1-3.2-0.6
		c-1.8,1.5-3.6,3.8-5.4,6.3c0,0-2.4,3.1-2.9,5.6c-0.2,0.8,0,1.7-0.3,1.7c-1.1,0-2.3,0-3.5,0.1c-5.7,0-10.3-0.3-13.8-0.8
		c-0.4-0.6-1.4-1.4,0.1-3.5c1.5-2.1,2.5-3.2,2.9-3.7c0.3-0.3,0.7-0.8,1.1-0.5c0.4,0.3,1.6,1.2,2,1.5c0.8,0.6,1.7,0.3,2.1-0.1l3-2.8
		c0,0,0.6-0.6,1.1-1.1c0.6-0.6,0.7-1.6,0.1-2.2c-0.4-0.4-1.1-0.5-1.6-0.1c-0.8,0.8-1.9,1.8-2.3,2.3c-0.7,0.6-0.8,1.3-1.8,0.3
		c0,0-2.6-2.8-3.5-3.2c0,0-1.4-1.2-2.6-0.2c0,0-4.8,4.6-6.5,7.4c-1.1,1.7-1.5,2.8-1.6,3.6c-0.1,0.5-0.5,0.7-1,0.6
		c-5-1.7-4.9-3.7-4.9-3.7c-3,3.1-3.9,6.6-3.9,6.6c-1.9,5.3,2.8,8.2,2.8,8.2c3.6,2.3,5.4-0.6,5.4-0.6c0.8,1.1,2.2,1.9,3.8,1.9
		c1.6,0,3-0.8,3.8-1.9c0.8,1.1,2.1,1.8,3.7,1.8c1.7,0,3.1-0.8,3.9-2c0.8,1.2,2.2,2,3.8,2c1.6,0,3-0.8,3.8-1.9c0.8,1.1,2.2,2,3.8,2
		c1.6,0,3-0.7,3.8-1.8c0.8,1.1,2.2,1.9,3.7,1.9c1.7,0,3.1-0.8,3.9-2c0.8,1.1,2.2,2,3.8,2c1.6,0,3-1,3.8-2.1c0,0,1.8,3.1,5.4,0.8
		C64.8,47.3,69.5,44.4,67.6,39.1L67.6,39.1z"/>
</g>
</svg>
