<?xml version="1.0" encoding="utf-8"?>
<!-- Generator: Adobe Illustrator 26.2.1, SVG Export Plug-In . SVG Version: 6.00 Build 0)  -->
<svg version="1.1" id="Layer_1" xmlns="http://www.w3.org/2000/svg" xmlns:xlink="http://www.w3.org/1999/xlink" x="0px" y="0px"
	 viewBox="0 0 72 72" style="enable-background:new 0 0 72 72;" xml:space="preserve">
<style type="text/css">
	.st0{clip-path:url(#SVGID_00000038404065839970352720000015609062011195134904_);}
	.st1{fill:#FFFFFF;}
</style>
<g>
	<g>
		<defs>
			<rect id="SVGID_1_" x="1" y="1.2" width="70" height="69.9"/>
		</defs>
		<clipPath id="SVGID_00000080180611519268165190000009612277437600201603_">
			<use xlink:href="#SVGID_1_"  style="overflow:visible;"/>
		</clipPath>
		<path style="clip-path:url(#SVGID_00000080180611519268165190000009612277437600201603_);" d="M36,71.1c19.3,0,35-15.7,35-35
			c0-19.3-15.6-35-35-35S1,16.8,1,36.2C1,55.5,16.7,71.1,36,71.1"/>
	</g>
</g>
<g>
	<g>
		<path class="st1" d="M51.3,10.7c2.8,0,5.1,2.3,5.1,5.1S54.1,21,51.3,21s-5.1-2.3-5.1-5.1S48.5,10.7,51.3,10.7"/>
		<path class="st1" d="M63.1,38.9c-0.2-1.1-1.8-11.2-2.2-12.9c-0.9-4.2-4.7-4.2-6.7-4.2h-5.9c-2,0-5.7,0-6.7,4.2
			c-0.4,1.7-2,11.8-2.2,12.9c-0.2,1.2,0.6,2.4,1.9,2.6c1.2,0.2,2.4-0.6,2.6-1.9c0.4-2.7,1.5-9.2,1.9-11.8v31.3c0,1.2,1,2.2,2.2,2.2
			s2.2-1,2.2-2.2V43.4h1.9v15.7c0,1.2,1,2.2,2.2,2.2s2.2-1,2.2-2.2V27.8c0.5,2.6,1.5,9.1,1.9,11.8c0.2,1.1,1.1,1.9,2.2,1.9
			c0.1,0,0.2,0,0.4,0C62.4,41.2,63.3,40.1,63.1,38.9"/>
	</g>
	<g>
		<path class="st1" d="M20.7,10.7c2.8,0,5.1,2.3,5.1,5.1S23.6,21,20.7,21c-2.8,0-5.1-2.3-5.1-5.1S17.9,10.7,20.7,10.7"/>
		<path class="st1" d="M23.8,21.7c2,0,5.8,0,6.7,4.2c0.3,1.7,2,11.8,2.1,12.9c0.2,1.2-0.6,2.4-1.8,2.6c-1.2,0.2-2.4-0.6-2.6-1.8
			c-0.4-2.6-1.5-9.2-2-11.7c-0.1-0.2-0.2-0.3-0.4-0.3c-0.2,0-0.4,0.2-0.4,0.4l3.1,19.3h-2.3V59c0,1.3-1,2.3-2.3,2.3s-2.3-1-2.3-2.3
			V47.2h-1.9V59c0,1.3-1,2.3-2.3,2.3s-2.3-1-2.3-2.3V47.2h-2.3L16,27.9c0-0.2-0.2-0.4-0.4-0.4s-0.3,0.1-0.4,0.3
			c-0.5,2.6-1.5,9.1-2,11.7c-0.2,1.2-1.3,2-2.6,1.8c-1.2-0.2-2-1.3-1.8-2.6c0.2-1.1,1.8-11.2,2.1-12.9c0.9-4.2,4.7-4.2,6.7-4.2
			L23.8,21.7L23.8,21.7z"/>
	</g>
</g>
</svg>
