<?xml version="1.0" encoding="utf-8"?>
<!-- Generator: Adobe Illustrator 26.2.1, SVG Export Plug-In . SVG Version: 6.00 Build 0)  -->
<svg version="1.1" id="Layer_1" xmlns="http://www.w3.org/2000/svg" xmlns:xlink="http://www.w3.org/1999/xlink" x="0px" y="0px"
	 viewBox="0 0 72 72" style="enable-background:new 0 0 72 72;" xml:space="preserve">
<style type="text/css">
	.st0{clip-path:url(#SVGID_00000091729921092425648610000014536001841004301980_);}
	.st1{fill:#FFFFFF;}
</style>
<g>
	<g>
		<defs>
			<rect id="SVGID_1_" x="1.3" y="1.2" width="70" height="69.9"/>
		</defs>
		<clipPath id="SVGID_00000183936827222573607720000010818948585908598669_">
			<use xlink:href="#SVGID_1_"  style="overflow:visible;"/>
		</clipPath>
		<path style="clip-path:url(#SVGID_00000183936827222573607720000010818948585908598669_);" d="M36.3,71.1c19.3,0,35-15.7,35-35
			c0-19.3-15.6-35-35-35s-35,15.7-35,35C1.3,55.5,17,71.1,36.3,71.1"/>
	</g>
</g>
<path class="st1" d="M51.3,62h3.8l-3.7-4.5h3.2l-2.8-3.1H49l-3.3-4.1h4.7c1.8,0,3.3-1.5,3.3-3.3V17.4c0-1.8-1.5-3.3-3.3-3.3h-7.2
	v-1.7c0-1.3-1.1-2.4-2.4-2.4h-9.2c-1.3,0-2.4,1.1-2.4,2.4v1.7h-7.7c-1.8,0-3.3,1.5-3.3,3.3V47c0,1.8,1.5,3.3,3.3,3.3h4.7L23,54.4
	h-2.9l-2.8,3.1h3.2L16.9,62h3.8l3.7-4.5h23.4L51.3,62z M44.8,47.2c-2.1,0-3.7-1.6-3.7-3.7c0-2.1,1.6-3.7,3.7-3.7s3.7,1.6,3.7,3.7
	C48.5,45.6,46.9,47.2,44.8,47.2z M21.2,28.6v-7.9c0-0.7,0.5-1.2,1.2-1.2h27.3c0.7,0,1.2,0.5,1.2,1.2v7.9c0,0.7-0.5,1.2-1.2,1.2H22.4
	C21.7,29.8,21.2,29.3,21.2,28.6z M23.5,43.5c0-2.1,1.6-3.7,3.7-3.7s3.7,1.6,3.7,3.7c0,2.1-1.6,3.7-3.7,3.7S23.5,45.5,23.5,43.5z
	 M26.8,54.4l3.3-4.1h11.8l3.3,4.1H26.8z"/>
</svg>
