<?xml version="1.0" encoding="utf-8"?>
<!-- Generator: Adobe Illustrator 26.2.1, SVG Export Plug-In . SVG Version: 6.00 Build 0)  -->
<svg version="1.1" id="Layer_1" xmlns="http://www.w3.org/2000/svg" xmlns:xlink="http://www.w3.org/1999/xlink" x="0px" y="0px"
	 viewBox="0 0 72 72" style="enable-background:new 0 0 72 72;" xml:space="preserve">
<style type="text/css">
	.st0{fill-rule:evenodd;clip-rule:evenodd;fill:#010101;}
</style>
<path class="st0" d="M9.9,36C9.9,21.6,21.6,9.9,36,9.9c14.4,0,26.1,11.7,26.1,26.1c0,14.4-11.7,26.1-26.1,26.1
	C21.6,62.1,9.9,50.4,9.9,36z M36,13.6c-12.4,0-22.4,10-22.4,22.4c0,12.4,10,22.4,22.4,22.4c12.4,0,22.4-10,22.4-22.4
	C58.4,23.6,48.4,13.6,36,13.6z M34.5,41.9c-0.2,0.5-3.1,11.7-3.1,11.7C31.1,54.7,30,55.3,29,55c-1.1-0.3-1.7-1.4-1.4-2.4
	c0,0,3.5-11.2,3.5-13.5v-5.8l-7.7-2.1c-1.1-0.3-1.7-1.4-1.4-2.4c0.3-1.1,1.4-1.7,2.4-1.4c0,0,6.5,2.2,9.1,2.2h5.2
	c2.5,0,9.1-2.2,9.1-2.2c1.1-0.3,2.1,0.3,2.4,1.4c0.3,1.1-0.3,2.1-1.4,2.4l-7.8,2.1V39c0,2.4,3.5,13.5,3.5,13.5
	c0.3,1.1-0.3,2.1-1.4,2.4c-1.1,0.3-2.1-0.3-2.4-1.4c0,0-2.9-11.2-3.1-11.7c-0.2-0.5-0.9-0.5-0.9-0.5h-1.2
	C35.4,41.4,34.7,41.4,34.5,41.9z M36,26.6c2.5,0,4.4-2,4.4-4.4s-2-4.4-4.4-4.4c-2.5,0-4.4,2-4.4,4.4S33.5,26.6,36,26.6z"/>
</svg>
