<?xml version="1.0" encoding="utf-8"?>
<!-- Generator: Adobe Illustrator 26.2.1, SVG Export Plug-In . SVG Version: 6.00 Build 0)  -->
<svg version="1.1" id="Layer_1" xmlns="http://www.w3.org/2000/svg" xmlns:xlink="http://www.w3.org/1999/xlink" x="0px" y="0px"
	 viewBox="0 0 72 72" style="enable-background:new 0 0 72 72;" xml:space="preserve">
<style type="text/css">
	.st0{clip-path:url(#SVGID_00000005228464350165986070000011425612817298080649_);}
	.st1{fill-rule:evenodd;clip-rule:evenodd;fill:#FFFFFF;}
</style>
<g>
	<g>
		<defs>
			<rect id="SVGID_1_" x="1.4" y="1.6" width="70" height="69.9"/>
		</defs>
		<clipPath id="SVGID_00000078766795635569363200000015545517152250712757_">
			<use xlink:href="#SVGID_1_"  style="overflow:visible;"/>
		</clipPath>
		<path style="clip-path:url(#SVGID_00000078766795635569363200000015545517152250712757_);" d="M36.4,71.5c19.3,0,35-15.7,35-35
			c0-19.3-15.6-35-35-35s-35,15.7-35,35C1.4,55.9,17.1,71.5,36.4,71.5"/>
	</g>
</g>
<path class="st1" d="M6.5,36.7c0-16.5,13.4-30,30-30s30,13.4,30,30s-13.4,30-30,30S6.5,53.2,6.5,36.7z M36.4,10.9
	c-14.2,0-25.7,11.5-25.7,25.7s11.5,25.7,25.7,25.7s25.7-11.5,25.7-25.7S50.7,10.9,36.4,10.9z M34.7,43.4c-0.2,0.6-3.6,13.4-3.6,13.4
	c-0.3,1.3-1.6,2-2.8,1.6c-1.3-0.3-2-1.6-1.6-2.8c0,0,4-12.9,4-15.5v-6.7L22,31.2c-1.3-0.3-2-1.6-1.6-2.8c0.3-1.3,1.6-2,2.8-1.6
	c0,0,7.5,2.5,10.4,2.5h6c2.9,0,10.4-2.5,10.4-2.5c1.3-0.3,2.4,0.3,2.8,1.6c0.3,1.3-0.3,2.4-1.6,2.8l-9,2.4v6.5c0,2.8,4,15.5,4,15.5
	c0.3,1.3-0.3,2.4-1.6,2.8c-1.3,0.3-2.4-0.3-2.8-1.6c0,0-3.3-12.9-3.6-13.4c-0.2-0.6-1-0.6-1-0.6h-1.4C35.8,42.9,35,42.9,34.7,43.4z
	 M36.4,25.9c2.9,0,5.1-2.3,5.1-5.1s-2.3-5.1-5.1-5.1c-2.9,0-5.1,2.3-5.1,5.1S33.6,25.9,36.4,25.9z"/>
</svg>
