<?xml version="1.0" encoding="utf-8"?>
<!-- Generator: Adobe Illustrator 26.2.1, SVG Export Plug-In . SVG Version: 6.00 Build 0)  -->
<svg version="1.1" id="Layer_1" xmlns="http://www.w3.org/2000/svg" xmlns:xlink="http://www.w3.org/1999/xlink" x="0px" y="0px"
	 viewBox="0 0 72 72" style="enable-background:new 0 0 72 72;" xml:space="preserve">
<style type="text/css">
	.st0{fill:#010101;}
</style>
<g>
	<path class="st0" d="M26.8,27.3c-0.3-0.3-0.8-0.5-1.3-0.5l-5.9,0.3l3.2-3.7c0.5-0.5,0.6-1.2,0.4-1.8c-0.1-0.4-0.4-0.8-0.8-1.1
		c0,0-7.7-4.5-7.7-4.5c-0.6-0.4-1.4-0.3-2,0.2l-3.8,3.4C8.4,20.3,8.3,21.3,9,22c0.6,0.7,1.7,0.8,2.4,0.1l2.9-2.5l2.4,1.4l-4.2,4.7
		C10.7,26,9.1,26.8,7.9,28l2.2,2.2c1-0.9,2.3-1.4,3.7-1.4c3.1,0,5.5,2.5,5.5,5.5c0,1.4-0.5,2.7-1.4,3.7l2.2,2.2
		c1.4-1.5,2.3-3.6,2.3-5.9c0-1.4-0.3-2.6-0.9-3.8l2.3-0.1l-0.6,6.8c-0.1,0.9,0.6,1.7,1.5,1.8c0,0,0.1,0,0.1,0c0.9,0,1.6-0.7,1.7-1.5
		l0.7-8.7C27.3,28.2,27.2,27.7,26.8,27.3z"/>
	<path class="st0" d="M23.7,20.1c1.6,0,2.8-1.3,2.8-2.8c0-1.6-1.3-2.8-2.8-2.8c-1.6,0-2.8,1.3-2.8,2.8
		C20.9,18.9,22.1,20.1,23.7,20.1z"/>
	<path class="st0" d="M13.8,39.8c-3.1,0-5.5-2.5-5.5-5.5c0-1.1,0.4-2.2,1-3.1L7,28.9c-1.1,1.5-1.8,3.3-1.8,5.3
		c0,4.8,3.9,8.6,8.6,8.6c2,0,3.8-0.7,5.3-1.8l-2.2-2.2C16,39.4,14.9,39.8,13.8,39.8z"/>
</g>
<g>
	<path class="st0" d="M50.2,52.3v-28c-2.7,0.7-8.7,2.5-12.8,4.5l1.2-5.5c0.8-3.6,2.6-5.1,6-5.1h5.6v6.2h2.6v28h12.7L72,37.1
		c0,0-0.8-4.2-3.5-6.6l-1.7-7.8c-1.2-5.9-5.3-7.1-8.5-7.1l-13.7,0c-4.7,0-7.5,2.3-8.5,7.1l-1.7,8c-2.5,2.4-3.2,6.4-3.2,6.4l6.4,15.2
		L50.2,52.3z M52.8,18.1h5.6c3.4,0,5.3,1.6,6,5.1l1.2,5.5c-4.2-1.9-10.1-3.7-12.8-4.4L52.8,18.1L52.8,18.1z"/>
</g>
<polygon class="st0" points="-2.2,51.8 31.2,51.8 30,37.7 -2.2,51.8 "/>
</svg>
