<?xml version="1.0" encoding="utf-8"?>
<!-- Generator: Adobe Illustrator 26.2.1, SVG Export Plug-In . SVG Version: 6.00 Build 0)  -->
<svg version="1.1" id="Layer_1" xmlns="http://www.w3.org/2000/svg" xmlns:xlink="http://www.w3.org/1999/xlink" x="0px" y="0px"
	 viewBox="0 0 72 72" style="enable-background:new 0 0 72 72;" xml:space="preserve">
<style type="text/css">
	.st0{clip-path:url(#SVGID_00000080925516235062007570000018137120814507493508_);}
	.st1{fill:#FFFFFF;}
</style>
<g>
	<g>
		<defs>
			<rect id="SVGID_1_" x="1" y="1.5" width="70" height="69.9"/>
		</defs>
		<clipPath id="SVGID_00000118397125740769754940000011520665467565615024_">
			<use xlink:href="#SVGID_1_"  style="overflow:visible;"/>
		</clipPath>
		<path style="clip-path:url(#SVGID_00000118397125740769754940000011520665467565615024_);" d="M36,71.4c19.3,0,35-15.7,35-35
			c0-19.3-15.6-35-35-35S1,17.2,1,36.5C1,55.8,16.7,71.4,36,71.4"/>
	</g>
</g>
<g>
	<g>
		<path class="st1" d="M26.6,29.2c-0.3-0.3-0.7-0.5-1.2-0.5L20,29l2.9-3.4c0.5-0.5,0.5-1.1,0.4-1.6c-0.1-0.4-0.4-0.7-0.7-1l-7-4.1
			c-0.5-0.4-1.3-0.3-1.8,0.2l-3.5,3.1c-0.5,0.6-0.5,1.5,0.1,2.2c0.5,0.6,1.5,0.7,2.2,0.1l2.6-2.3l2.2,1.3l-3.8,4.3
			c-1.6,0.3-3.1,1-4.2,2.1l2,2c0.9-0.8,2.1-1.3,3.4-1.3c2.8,0,5,2.3,5,5c0,1.3-0.5,2.5-1.3,3.4l2,2c1.3-1.4,2.1-3.3,2.1-5.4
			c0-1.3-0.3-2.4-0.8-3.5l2.1-0.1l-0.5,6.2c-0.1,0.8,0.5,1.5,1.4,1.6h0.1c0.8,0,1.5-0.6,1.5-1.4l0.6-7.9C27,30,26.9,29.6,26.6,29.2z
			"/>
		<path class="st1" d="M23.7,22.6c1.5,0,2.6-1.2,2.6-2.6c0-1.5-1.2-2.6-2.6-2.6c-1.5,0-2.6,1.2-2.6,2.6
			C21.2,21.5,22.3,22.6,23.7,22.6z"/>
		<path class="st1" d="M14.7,40.6c-2.8,0-5-2.3-5-5c0-1,0.4-2,0.9-2.8l-2.1-2.1c-1,1.4-1.6,3-1.6,4.8c0,4.4,3.6,7.8,7.8,7.8
			c1.8,0,3.5-0.6,4.8-1.6l-2-2C16.7,40.2,15.7,40.6,14.7,40.6z"/>
	</g>
	<g>
		<path class="st1" d="M47.9,52V26.5c-2.5,0.6-7.9,2.3-11.7,4.1l1.1-5c0.7-3.3,2.4-4.6,5.5-4.6h5.1v5.7h2.4v25.5h11.6l5.9-13.9
			c0,0-0.7-3.8-3.2-6L63,25c-1.1-5.4-4.8-6.5-7.7-6.5H42.8c-4.3,0-6.8,2.1-7.7,6.5l-1.5,7.3c-2.3,2.2-2.9,5.8-2.9,5.8L36.4,52H47.9z
			 M50.3,20.8h5.1c3.1,0,4.8,1.5,5.5,4.6l1.1,5c-3.8-1.7-9.2-3.4-11.7-4L50.3,20.8L50.3,20.8z"/>
	</g>
	<polygon class="st1" points="0.1,51.5 30.6,51.5 29.5,38.7 	"/>
</g>
</svg>
