<?xml version="1.0" encoding="utf-8"?>
<!-- Generator: Adobe Illustrator 26.2.1, SVG Export Plug-In . SVG Version: 6.00 Build 0)  -->
<svg version="1.1" id="Layer_1" xmlns="http://www.w3.org/2000/svg" xmlns:xlink="http://www.w3.org/1999/xlink" x="0px" y="0px"
	 viewBox="0 0 72 72" style="enable-background:new 0 0 72 72;" xml:space="preserve">
<style type="text/css">
	.st0{clip-path:url(#SVGID_00000116200540986544014060000002242522188503613088_);}
	.st1{fill:#FFFFFF;}
</style>
<g>
	<g>
		<defs>
			<rect id="SVGID_1_" x="0.7" y="0.9" width="70" height="69.9"/>
		</defs>
		<clipPath id="SVGID_00000070815024980374841140000004444518372140096174_">
			<use xlink:href="#SVGID_1_"  style="overflow:visible;"/>
		</clipPath>
		<path style="clip-path:url(#SVGID_00000070815024980374841140000004444518372140096174_);" d="M35.7,70.8c19.3,0,35-15.7,35-35
			c0-19.3-15.6-35-35-35s-35,15.7-35,35C0.7,55.1,16.4,70.8,35.7,70.8"/>
	</g>
</g>
<g>
	<path class="st1" d="M54.4,33.6c-0.6-0.6-1.5-1-2.3-0.9l-10.6,0.6l5.8-6.7c0.8-0.9,1.1-2.2,0.7-3.3c-0.2-0.8-0.6-1.5-1.4-1.9
		l-14-8.1c-1.1-0.7-2.6-0.5-3.6,0.4l-6.8,6.1c-1.3,1.1-1.4,3-0.2,4.3c1.1,1.3,3,1.4,4.3,0.2l5.2-4.6l4.3,2.5l-7.5,8.6
		c-3.1,0.5-5.9,1.9-8.1,4l3.9,3.9c1.8-1.6,4.1-2.6,6.7-2.6c5.5,0,10,4.5,10,10c0,2.6-1,4.9-2.6,6.7l3.9,3.9
		c2.6-2.8,4.2-6.5,4.2-10.7c0-2.5-0.6-4.8-1.6-6.9l4.1-0.2l-1,12.3c-0.1,1.7,1.1,3.1,2.8,3.3c0.1,0,0.2,0,0.3,0c1.6,0,2.9-1.2,3-2.8
		L55.2,36C55.3,35.1,55,34.2,54.4,33.6z"/>
	<path class="st1" d="M48.7,20.6c2.8,0,5.1-2.3,5.1-5.1s-2.3-5.1-5.1-5.1s-5.1,2.3-5.1,5.1C43.6,18.3,45.9,20.6,48.7,20.6z"/>
	<path class="st1" d="M30.8,56.1c-5.5,0-10-4.5-10-10c0-2.1,0.6-4,1.7-5.6l-4-4c-2.1,2.6-3.3,6-3.3,9.6c0,8.6,7,15.6,15.6,15.6
		c3.6,0,6.9-1.2,9.6-3.3l-4-4C34.8,55.4,32.8,56.1,30.8,56.1z"/>
</g>
</svg>
