<?xml version="1.0" encoding="utf-8"?>
<!-- Generator: Adobe Illustrator 27.5.0, SVG Export Plug-In . SVG Version: 6.00 Build 0)  -->
<svg version="1.1" id="Layer_1" xmlns="http://www.w3.org/2000/svg" xmlns:xlink="http://www.w3.org/1999/xlink" x="0px" y="0px"
	 viewBox="0 0 72 72" style="enable-background:new 0 0 72 72;" xml:space="preserve">
<style type="text/css">
	.st0{fill:none;}
	.st1{fill:#F77B00;}
	.st2{fill-rule:evenodd;clip-rule:evenodd;fill:#FFFFFF;}
</style>
<g>
	<g>
		<rect x="1.3" y="1.5" class="st0" width="70" height="69.9"/>
		<path class="st1" d="M36.2,71.4c19.3,0,35-15.7,35-35s-15.6-35-35-35s-35,15.7-35,35C1.3,55.8,16.9,71.4,36.2,71.4"/>
	</g>
</g>
<path class="st2" d="M64.6,37.2c-3.7,5.9-11,14.4-22.2,14.4H12.3c-0.4,0-0.6-0.3-0.7-0.7L9.8,43c-0.1-0.5,0.2-1.1,0.6-1.1L64.6,37.2
	L64.6,37.2z M13.8,34.8l-4.7,0.4c-0.4,0-0.7-0.4-0.8-0.9v-0.5c0-0.5,0.3-1,0.7-1l14.9-1.2c0.4,0,0.7,0.4,0.8,0.9V33
	c0,0.5-0.3,1-0.7,1l-1.7,0.2c-0.4,0-0.7,0.4-0.7,1l0,0c0,0.5,0.4,1,0.8,1l3-0.3c0.4,0,0.6-0.4,0.6-0.8l0.5-6.2c0-0.3,0-0.4-0.2-0.7
	l-1.1-1.8c-0.4-0.6-0.1-1.4,0.5-1.5l21.1-2c0.3,0,0.4,0.1,0.6,0.4l6.2,9.5c0.2,0.3,0.4,0.4,0.6,0.4L66,31.9c0.6-0.1,1,0.8,0.6,1.4
	c-0.3,0.5-0.6,1.1-1,1.9c-0.1,0.3-0.4,0.4-0.5,0.4L9.8,40.3c-0.4,0-0.6-0.3-0.7-0.7l-0.3-1.1C8.7,38,9,37.4,9.4,37.4l4.4-0.4
	c0.4,0,0.6-0.4,0.6-1v-0.1C14.6,35.2,14.2,34.7,13.8,34.8z M39.6,27.7l1.1,5.6c0.1,0.4,0.4,0.7,0.7,0.7l7.1-0.7
	c0.5-0.1,0.9-0.9,0.5-1.5l-3-5.3c-0.2-0.3-0.4-0.4-0.6-0.4l-5.1,0.4C39.8,26.5,39.5,27.1,39.6,27.7z M30.3,35.2l7.2-0.7
	c0.4,0,0.7-0.5,0.6-1.1l-0.9-5.7c-0.1-0.4-0.4-0.8-0.7-0.8l-6.2,0.4c-0.4,0-0.7,0.4-0.7,0.9l-0.2,6.1C29.5,34.7,29.8,35.2,30.3,35.2
	z M16.3,35.4L16.3,35.4c0,0.6,0.4,1.1,0.8,1l2.3-0.3c0.4,0,0.6-0.4,0.6-1V35c0-0.5-0.4-1-0.8-1l-2.3,0.2
	C16.5,34.5,16.3,35,16.3,35.4z"/>
</svg>
